<svg width="12" height="12" viewBox="0 0 12 12" fill="none" xmlns="http://www.w3.org/2000/svg">
<g id="survey">
<path id="Outline" d="M9.37193 0.744H10.1279C10.3359 0.744 10.5119 0.82 10.6559 0.972C10.7999 1.116 10.8719 1.292 10.8719 1.5V11.256C10.8719 11.456 10.7999 11.628 10.6559 11.772C10.5119 11.924 10.3359 12 10.1279 12H1.87193C1.67193 12 1.49593 11.924 1.34393 11.772C1.19993 11.628 1.12793 11.456 1.12793 11.256V1.5C1.12793 1.292 1.19993 1.116 1.34393 0.972C1.48793 0.82 1.66393 0.744 1.87193 0.744H2.62793V1.5H1.87193V11.256H10.1279V1.5H9.37193V0.744ZM4.12793 0.744V0H7.87193V0.744H4.12793ZM3.71993 7.5H8.27993C8.36793 7.5 8.44793 7.536 8.51993 7.608C8.59193 7.68 8.62793 7.768 8.62793 7.872C8.62793 7.976 8.59193 8.064 8.51993 8.136C8.44793 8.208 8.36793 8.244 8.27993 8.244H3.71993C3.63193 8.244 3.55193 8.208 3.47993 8.136C3.40793 8.064 3.37193 7.976 3.37193 7.872C3.37193 7.768 3.40793 7.68 3.47993 7.608C3.55193 7.536 3.63193 7.5 3.71993 7.5ZM3.71993 4.5H8.27993C8.36793 4.5 8.44793 4.536 8.51993 4.608C8.59193 4.68 8.62793 4.768 8.62793 4.872C8.62793 4.976 8.59193 5.064 8.51993 5.136C8.44793 5.208 8.36793 5.244 8.27993 5.244H3.71993C3.63193 5.244 3.55193 5.208 3.47993 5.136C3.40793 5.064 3.37193 4.976 3.37193 4.872C3.37193 4.768 3.40793 4.68 3.47993 4.608C3.55193 4.536 3.63193 4.5 3.71993 4.5Z" fill="#464646"/>
</g>
</svg>
