<svg width="333" height="250" viewBox="0 0 333 250" fill="none" xmlns="http://www.w3.org/2000/svg">
<path d="M234.552 0C175.5 0 153.94 33.9138 140.155 45.9655C133.69 51.6494 126.134 55.9555 117.948 58.6207C104.336 63.0862 70.974 54.0431 41.8964 63.7931C17.6981 71.8362 0.292969 98.9483 0.292969 126.06C0.292969 180.664 37.6378 250 161.095 250C284.552 250 332.19 167.871 332.19 102.353C332.19 36.8362 290.81 0 234.552 0Z" fill="#2A276E"/>
<rect x="32.3184" y="81.7412" width="48.9914" height="66.6466" rx="2.22" fill="#C484BB"/>
<rect x="26.8623" y="135.836" width="23.7069" height="20.7845" rx="2.22" fill="#694092"/>
<path fill-rule="evenodd" clip-rule="evenodd" d="M38.3881 89.7844H75.2415C75.4796 89.7844 75.6725 89.5915 75.6725 89.3534C75.6725 89.1153 75.4796 88.9224 75.2415 88.9224H38.3881C38.15 88.9224 37.957 89.1153 37.957 89.3534C37.957 89.5915 38.15 89.7844 38.3881 89.7844ZM75.2415 94.9655C75.4796 94.9655 75.6725 95.1584 75.6725 95.3965C75.6725 95.6346 75.4796 95.8275 75.2415 95.8275H38.3881C38.15 95.8275 37.957 95.6346 37.957 95.3965C37.9616 95.1604 38.1519 94.9701 38.3881 94.9655H75.2415ZM75.6725 101.431C75.6725 101.193 75.4796 101 75.2415 101H38.3881C38.15 101 37.957 101.193 37.957 101.431C37.9616 101.667 38.1519 101.857 38.3881 101.862H75.2415C75.473 101.862 75.6633 101.68 75.6725 101.448V101.431ZM75.2415 107.034C75.4796 107.034 75.6725 107.227 75.6725 107.465V107.491C75.6588 107.719 75.4698 107.897 75.2415 107.896H38.3881C38.1519 107.892 37.9616 107.702 37.957 107.465C37.957 107.227 38.15 107.034 38.3881 107.034H75.2415ZM75.6725 113.5C75.6725 113.262 75.4796 113.069 75.2415 113.069H38.3881C38.1519 113.074 37.9616 113.264 37.957 113.5C37.957 113.738 38.15 113.931 38.3881 113.931H75.2415C75.4667 113.932 75.6545 113.759 75.6725 113.534V113.5ZM75.2415 119.103C75.4796 119.103 75.6725 119.296 75.6725 119.534V119.578C75.6503 119.799 75.4637 119.967 75.2415 119.965H38.3881C38.15 119.965 37.957 119.772 37.957 119.534C37.9616 119.298 38.1519 119.108 38.3881 119.103H75.2415ZM75.6725 125.569C75.6725 125.331 75.4796 125.138 75.2415 125.138H38.3881C38.15 125.138 37.957 125.331 37.957 125.569C37.9616 125.805 38.1519 125.995 38.3881 126H75.2415C75.4579 126.002 75.6423 125.843 75.6725 125.629V125.569ZM75.2415 131.172C75.4796 131.172 75.6725 131.365 75.6725 131.603V131.672C75.6384 131.883 75.455 132.037 75.2415 132.034H38.3881C38.15 132.034 37.957 131.841 37.957 131.603C37.957 131.365 38.15 131.172 38.3881 131.172H75.2415Z" fill="#694092"/>
<path fill-rule="evenodd" clip-rule="evenodd" d="M75.0155 139.094C74.537 137.936 73.408 137.181 72.1555 137.181C71.3355 137.179 70.5483 137.503 69.9676 138.082C69.387 138.661 69.0607 139.447 69.0607 140.267C69.0572 141.52 69.809 142.651 70.9652 143.133C72.1213 143.614 73.4539 143.352 74.3408 142.467C75.2277 141.583 75.4941 140.251 75.0155 139.094ZM63.1223 143.134C61.9651 142.652 61.2123 141.521 61.2158 140.267C61.2158 138.563 62.5976 137.181 64.302 137.181C65.5553 137.178 66.687 137.93 67.1682 139.088C67.6495 140.245 67.3852 141.578 66.499 142.464C65.6128 143.351 64.2796 143.615 63.1223 143.134Z" fill="#703E97"/>
<path fill-rule="evenodd" clip-rule="evenodd" d="M199.19 223.164H202.595C203.113 223.168 203.562 222.808 203.672 222.302L205.319 215.319H196.466L198.121 222.302C198.227 222.807 198.674 223.167 199.19 223.164ZM136.138 215.319L134.491 222.302L134.509 222.319C134.395 222.803 133.971 223.15 133.474 223.164H130.026C129.51 223.167 129.063 222.807 128.957 222.302L127.302 215.319H136.138Z" fill="#9982AB"/>
<path fill-rule="evenodd" clip-rule="evenodd" d="M174.068 223.164H177.517C178.018 223.148 178.445 222.792 178.551 222.302L180.206 215.319H171.344L172.999 222.302C173.109 222.805 173.554 223.164 174.068 223.164ZM111.068 215.319L109.413 222.302L109.422 222.319C109.311 222.804 108.885 223.153 108.387 223.164H104.939C104.424 223.164 103.98 222.805 103.87 222.302L102.224 215.319H111.068Z" fill="#E9E7EE"/>
<path fill-rule="evenodd" clip-rule="evenodd" d="M102.474 216.379H110.818L110.284 218.664H103.017L102.474 216.379ZM172.181 218.698H179.439L179.982 216.414H171.637L172.181 218.698Z" fill="#9982AB"/>
<rect x="112.577" y="20.3706" width="97.0517" height="196.121" rx="3.45" fill="#9982AB"/>
<rect x="97.9141" y="20.3706" width="86.6379" height="196.121" rx="3.45" fill="#E9E7EE"/>
<rect x="180.232" y="24.7241" width="187.405" height="78.0172" rx="2.54" transform="rotate(90 180.232 24.7241)" fill="#703E97"/>
<path fill-rule="evenodd" clip-rule="evenodd" d="M106.328 42.9482H176.155C176.463 42.9505 176.759 42.8298 176.978 42.6129C177.196 42.3961 177.319 42.1009 177.319 41.7931V29.0862C177.319 28.4434 176.798 27.9224 176.155 27.9224H106.328C105.685 27.9224 105.164 28.4434 105.164 29.0862V41.7931C105.164 42.1009 105.287 42.3961 105.505 42.6129C105.724 42.8298 106.02 42.9505 106.328 42.9482ZM177.319 47.5258V60.2327H177.327C177.327 60.5429 177.204 60.8402 176.983 61.0587C176.763 61.2772 176.465 61.3988 176.155 61.3965H106.327C105.685 61.3965 105.164 60.8755 105.164 60.2327V47.5258C105.164 47.2179 105.286 46.9228 105.505 46.7059C105.723 46.489 106.02 46.3683 106.327 46.3706H176.155C176.463 46.3683 176.759 46.489 176.977 46.7059C177.196 46.9228 177.319 47.2179 177.319 47.5258ZM177.319 78.6724V65.9741C177.321 65.6647 177.199 65.3674 176.98 65.1486C176.762 64.9298 176.464 64.808 176.155 64.8103H106.327C106.018 64.808 105.721 64.9298 105.502 65.1486C105.283 65.3674 105.161 65.6647 105.164 65.9741V78.6724C105.161 78.9817 105.283 79.2791 105.502 79.4978C105.721 79.7166 106.018 79.8385 106.327 79.8362H176.155C176.466 79.8408 176.765 79.72 176.986 79.5009C177.207 79.2819 177.33 78.9832 177.327 78.6724H177.319ZM177.319 84.4137V97.112H177.327C177.33 97.4229 177.207 97.7216 176.986 97.9406C176.765 98.1596 176.466 98.2805 176.155 98.2758H106.327C106.018 98.2781 105.721 98.1563 105.502 97.9375C105.283 97.7187 105.161 97.4214 105.164 97.112V84.4137C105.161 84.1044 105.283 83.807 105.502 83.5883C105.721 83.3695 106.018 83.2476 106.327 83.25H176.155C176.464 83.2476 176.762 83.3695 176.98 83.5883C177.199 83.807 177.321 84.1044 177.319 84.4137ZM177.319 115.56V102.853C177.3 102.224 176.785 101.724 176.155 101.724H106.327C105.685 101.724 105.164 102.245 105.164 102.888V115.595C105.164 115.903 105.286 116.198 105.505 116.415C105.723 116.632 106.02 116.752 106.327 116.75H176.155C176.47 116.755 176.774 116.63 176.996 116.406C177.217 116.181 177.337 115.876 177.327 115.56H177.319ZM177.319 121.293V134H177.327C177.327 134.31 177.204 134.607 176.983 134.826C176.763 135.044 176.465 135.166 176.155 135.164H106.327C105.685 135.164 105.164 134.643 105.164 134V121.293C105.164 120.985 105.286 120.69 105.505 120.473C105.723 120.256 106.02 120.136 106.327 120.138H176.155C176.463 120.136 176.759 120.256 176.977 120.473C177.196 120.69 177.319 120.985 177.319 121.293ZM177.319 152.44V139.741C177.321 139.432 177.199 139.135 176.98 138.916C176.762 138.697 176.464 138.575 176.155 138.578H106.327C106.018 138.575 105.721 138.697 105.502 138.916C105.283 139.135 105.161 139.432 105.164 139.741V152.44C105.161 152.749 105.283 153.046 105.502 153.265C105.721 153.484 106.018 153.606 106.327 153.603H176.155C176.466 153.608 176.765 153.487 176.986 153.268C177.207 153.049 177.33 152.75 177.327 152.44H177.319ZM177.319 158.181V170.888H177.327C177.327 171.197 177.203 171.494 176.983 171.711C176.763 171.928 176.464 172.048 176.155 172.043H106.327C106.02 172.045 105.723 171.925 105.505 171.708C105.286 171.491 105.164 171.196 105.164 170.888V158.181C105.164 157.538 105.685 157.017 106.327 157.017H176.155C176.798 157.017 177.319 157.538 177.319 158.181ZM177.319 189.328V176.621C177.319 176.313 177.196 176.018 176.977 175.801C176.759 175.584 176.463 175.463 176.155 175.465H106.327C106.02 175.463 105.723 175.584 105.505 175.801C105.286 176.018 105.164 176.313 105.164 176.621V189.328C105.154 189.641 105.273 189.945 105.493 190.17C105.712 190.394 106.013 190.52 106.327 190.517H176.155C176.47 190.522 176.774 190.398 176.996 190.173C177.217 189.948 177.337 189.643 177.327 189.328H177.319ZM177.319 195.06V207.767L177.327 207.759C177.327 208.069 177.204 208.366 176.983 208.585C176.763 208.803 176.465 208.925 176.155 208.922H106.327C105.685 208.922 105.164 208.401 105.164 207.759V195.06C105.164 194.752 105.286 194.457 105.505 194.24C105.723 194.024 106.02 193.903 106.327 193.905H176.155C176.463 193.903 176.759 194.024 176.977 194.24C177.196 194.457 177.319 194.752 177.319 195.06Z" fill="#9982AB"/>
<path fill-rule="evenodd" clip-rule="evenodd" d="M123.232 36.3448H160.232C160.461 36.3448 160.68 36.254 160.842 36.0924C161.003 35.9307 161.094 35.7114 161.094 35.4828V35.3879C161.094 34.9118 160.708 34.5259 160.232 34.5259H123.232C122.756 34.5259 122.37 34.9118 122.37 35.3879V35.4828C122.37 35.9589 122.756 36.3448 123.232 36.3448ZM161.094 53.8276V53.9311C161.094 54.4072 160.708 54.7931 160.232 54.7931H123.232C122.756 54.7931 122.37 54.4072 122.37 53.9311V53.8276C122.37 53.3515 122.756 52.9655 123.232 52.9655H160.232C160.708 52.9655 161.094 53.3515 161.094 53.8276ZM161.094 72.3707V72.2759C161.094 71.7998 160.708 71.4138 160.232 71.4138H123.232C122.756 71.4138 122.37 71.7998 122.37 72.2759V72.4138C122.37 72.8899 122.756 73.2759 123.232 73.2759H160.232C160.708 73.2759 161.094 72.8899 161.094 72.4138V72.3707ZM161.094 90.7155V90.8104C161.094 91.2865 160.708 91.6724 160.232 91.6724H123.232C122.756 91.6724 122.37 91.2865 122.37 90.8104V90.7155C122.37 90.2394 122.756 89.8535 123.232 89.8535H160.232C160.708 89.8535 161.094 90.2394 161.094 90.7155ZM161.094 109.259V109.155C161.094 108.679 160.708 108.293 160.232 108.293H123.232C122.756 108.293 122.37 108.679 122.37 109.155V109.259C122.37 109.735 122.756 110.121 123.232 110.121H160.232C160.708 110.121 161.094 109.735 161.094 109.259ZM161.094 127.586V127.698C161.085 128.168 160.702 128.543 160.232 128.543H123.232C122.756 128.543 122.37 128.157 122.37 127.681V127.586C122.37 127.11 122.756 126.724 123.232 126.724H160.232C160.708 126.724 161.094 127.11 161.094 127.586ZM161.094 146.138V146.043C161.094 145.567 160.708 145.181 160.232 145.181H123.232C122.756 145.181 122.37 145.567 122.37 146.043V146.138C122.37 146.614 122.756 147 123.232 147H160.232C160.708 147 161.094 146.614 161.094 146.138ZM161.094 164.483V164.578C161.094 165.054 160.708 165.44 160.232 165.44H123.232C122.756 165.44 122.37 165.054 122.37 164.578V164.483C122.37 164.007 122.756 163.621 123.232 163.621H160.232C160.708 163.621 161.094 164.007 161.094 164.483ZM161.094 183.026V182.922C161.094 182.446 160.708 182.06 160.232 182.06H123.232C122.756 182.06 122.37 182.446 122.37 182.922V183.026C122.37 183.502 122.756 183.888 123.232 183.888H160.232C160.708 183.888 161.094 183.502 161.094 183.026ZM161.094 201.371V201.466C161.094 201.942 160.708 202.328 160.232 202.328H123.232C122.756 202.328 122.37 201.942 122.37 201.466V201.371C122.37 200.895 122.756 200.509 123.232 200.509H160.232C160.708 200.509 161.094 200.895 161.094 201.371Z" fill="#A8499A"/>
<path fill-rule="evenodd" clip-rule="evenodd" d="M167.759 34.7758H165.526C165.201 34.7781 164.888 34.6498 164.658 34.4198C164.428 34.1897 164.299 33.877 164.302 33.5516V31.3189C164.302 30.9942 164.431 30.6828 164.66 30.4533C164.89 30.2237 165.201 30.0947 165.526 30.0947H167.759C168.433 30.0994 168.978 30.6447 168.983 31.3189V33.5516C168.983 34.2277 168.435 34.7758 167.759 34.7758ZM173.647 30.0947H171.414C171.089 30.0947 170.778 30.2237 170.548 30.4533C170.319 30.6828 170.19 30.9942 170.19 31.3189V33.5516C170.187 33.877 170.316 34.1897 170.546 34.4198C170.776 34.6498 171.088 34.7781 171.414 34.7758H173.647C174.323 34.7758 174.871 34.2277 174.871 33.5516V31.3189C174.866 30.6447 174.321 30.0994 173.647 30.0947ZM171.414 40.6637H173.647C174.323 40.6637 174.871 40.1156 174.871 39.4396V37.2068C174.866 36.5327 174.321 35.9874 173.647 35.9827H171.414C170.738 35.9827 170.19 36.5307 170.19 37.2068V39.4396C170.187 39.7649 170.316 40.0776 170.546 40.3077C170.776 40.5378 171.088 40.666 171.414 40.6637ZM164.302 39.4482V37.2154V37.2068C164.302 36.5307 164.85 35.9827 165.526 35.9827H167.759C168.433 35.9874 168.978 36.5327 168.983 37.2068V39.4482C168.983 40.1242 168.435 40.6723 167.759 40.6723H165.526C165.201 40.6746 164.888 40.5464 164.658 40.3163C164.428 40.0863 164.299 39.7735 164.302 39.4482ZM171.414 48.5516H173.647C174.319 48.5516 174.866 49.0944 174.871 49.7671V52.0085C174.866 52.6812 174.319 53.2241 173.647 53.224H171.414C171.09 53.2263 170.779 53.0993 170.549 52.8711C170.319 52.6429 170.19 52.3324 170.19 52.0085V49.7671C170.187 49.4418 170.316 49.1291 170.546 48.899C170.776 48.6689 171.088 48.5407 171.414 48.543V48.5516ZM167.759 53.224H165.526V53.2154C165.204 53.2177 164.893 53.0918 164.664 52.8655C164.434 52.6392 164.304 52.3309 164.302 52.0085V49.7671C164.302 49.4433 164.431 49.1328 164.661 48.9046C164.891 48.6764 165.202 48.5493 165.526 48.5516H167.759C168.431 48.5516 168.978 49.0944 168.983 49.7671V52.0085C168.978 52.6812 168.431 53.2241 167.759 53.224ZM171.414 59.112H173.647C174.319 59.112 174.866 58.5692 174.871 57.8965V55.6551C174.866 54.9824 174.319 54.4395 173.647 54.4396H171.414C171.09 54.4373 170.779 54.5643 170.549 54.7925C170.319 55.0207 170.19 55.3312 170.19 55.6551V57.8965C170.192 58.2188 170.322 58.5271 170.552 58.7534C170.781 58.9798 171.091 59.1056 171.414 59.1033V59.112ZM164.302 57.9051V55.6637V55.6464C164.311 54.9785 164.858 54.4434 165.526 54.4482H167.759C168.431 54.4482 168.978 54.991 168.983 55.6637V57.9051C168.978 58.5778 168.431 59.1206 167.759 59.1206H165.526C165.202 59.1229 164.891 58.9958 164.661 58.7676C164.431 58.5394 164.302 58.2289 164.302 57.9051ZM171.414 66.9827H173.647C174.323 66.9827 174.871 67.5307 174.871 68.2068V70.4396C174.866 71.1137 174.321 71.659 173.647 71.6637H171.414C170.738 71.6637 170.19 71.1156 170.19 70.4396V68.2068C170.187 67.8814 170.316 67.5687 170.546 67.3386C170.776 67.1086 171.088 66.9803 171.414 66.9827ZM167.759 71.6637H165.526C164.85 71.6637 164.302 71.1156 164.302 70.4396V68.2068C164.299 67.8814 164.428 67.5687 164.658 67.3386C164.888 67.1086 165.201 66.9803 165.526 66.9827H167.759C168.435 66.9827 168.983 67.5307 168.983 68.2068V70.4396C168.978 71.1137 168.433 71.659 167.759 71.6637ZM171.414 77.5861H173.647C174.321 77.5814 174.866 77.0361 174.871 76.362V74.1378C174.871 73.4618 174.323 72.9137 173.647 72.9137H171.414C171.088 72.9114 170.776 73.0396 170.546 73.2697C170.316 73.4998 170.187 73.8125 170.19 74.1378V76.3706C170.194 77.0433 170.741 77.5861 171.414 77.5861ZM164.302 76.3706V74.1378C164.299 73.8125 164.428 73.4998 164.658 73.2697C164.888 73.0396 165.201 72.9114 165.526 72.9137H167.759C168.435 72.9137 168.983 73.4618 168.983 74.1378V76.362C168.978 77.0361 168.433 77.5814 167.759 77.5861H165.526C164.853 77.5861 164.307 77.0433 164.302 76.3706ZM171.414 85.4654H173.647C174.321 85.4701 174.866 86.0154 174.871 86.6896V88.9223C174.866 89.5964 174.321 90.1418 173.647 90.1465H171.414C170.738 90.1465 170.19 89.5984 170.19 88.9223V86.6896C170.178 86.3575 170.302 86.0349 170.533 85.796C170.764 85.557 171.082 85.4221 171.414 85.4223V85.4654ZM167.759 90.1465H165.526V90.1034C164.866 90.1038 164.325 89.5815 164.302 88.9223V86.6896C164.302 86.0135 164.85 85.4654 165.526 85.4654H167.759C168.433 85.4701 168.978 86.0154 168.983 86.6896V88.9223C168.978 89.5964 168.433 90.1418 167.759 90.1465ZM171.414 96.0344H173.647C174.321 96.0297 174.866 95.4844 174.871 94.8102V92.5775C174.866 91.9034 174.321 91.358 173.647 91.3533H171.414C170.738 91.3533 170.19 91.9014 170.19 92.5775V94.8102C170.213 95.4694 170.754 95.9917 171.414 95.9913V96.0344ZM164.302 94.8189V92.5861V92.5344C164.33 91.8786 164.87 91.3614 165.526 91.362H167.759C168.433 91.3667 168.978 91.912 168.983 92.5861V94.8189C168.978 95.493 168.433 96.0383 167.759 96.043H165.526C164.85 96.043 164.302 95.4949 164.302 94.8189ZM171.414 103.914H173.647C174.321 103.918 174.866 104.464 174.871 105.138V107.371C174.871 108.047 174.323 108.595 173.647 108.595H171.414C171.088 108.597 170.776 108.469 170.546 108.239C170.316 108.009 170.187 107.696 170.19 107.371V105.086C170.19 104.41 170.738 103.862 171.414 103.862V103.914ZM167.759 108.595H165.526V108.543C165.201 108.545 164.888 108.417 164.658 108.187C164.428 107.957 164.299 107.644 164.302 107.319V105.086C164.302 104.41 164.85 103.862 165.526 103.862H167.759C168.433 103.867 168.978 104.412 168.983 105.086V107.371C168.983 108.047 168.435 108.595 167.759 108.595ZM171.414 114.483H173.647C174.323 114.483 174.871 113.935 174.871 113.259V111.026C174.866 110.352 174.321 109.806 173.647 109.802H171.414C170.738 109.802 170.19 110.35 170.19 111.026V113.259C170.213 113.916 170.756 114.436 171.414 114.431V114.483ZM164.302 113.267V111.034V110.974C164.334 110.322 164.873 109.809 165.526 109.81H167.759C168.433 109.815 168.978 110.36 168.983 111.034V113.267C168.983 113.943 168.435 114.491 167.759 114.491H165.526C165.201 114.494 164.888 114.365 164.658 114.135C164.428 113.905 164.299 113.593 164.302 113.267ZM171.414 122.371H173.647C174.319 122.371 174.866 122.913 174.871 123.586V125.827C174.866 126.5 174.319 127.043 173.647 127.043H171.414C171.09 127.045 170.779 126.918 170.549 126.69C170.319 126.462 170.19 126.151 170.19 125.827V123.586C170.173 123.252 170.295 122.926 170.527 122.684C170.758 122.443 171.079 122.307 171.414 122.31V122.371ZM167.759 127.043H165.526V126.983C164.874 126.988 164.334 126.478 164.302 125.827V123.586C164.302 123.262 164.431 122.952 164.661 122.724C164.891 122.495 165.202 122.368 165.526 122.371H167.759C168.431 122.371 168.978 122.913 168.983 123.586V125.827C168.978 126.5 168.431 127.043 167.759 127.043ZM171.414 132.931H173.647C174.319 132.931 174.866 132.388 174.871 131.715V129.474C174.866 128.801 174.319 128.259 173.647 128.259H171.414C171.09 128.256 170.779 128.383 170.549 128.611C170.319 128.84 170.19 129.15 170.19 129.474V131.715C170.222 132.366 170.762 132.876 171.414 132.871V132.931ZM164.302 131.724V129.483V129.414C164.339 128.766 164.877 128.261 165.526 128.267H167.759C168.431 128.267 168.978 128.81 168.983 129.483V131.724C168.978 132.397 168.431 132.94 167.759 132.94H165.526C165.202 132.942 164.891 132.815 164.661 132.587C164.431 132.358 164.302 132.048 164.302 131.724ZM171.414 140.819H173.647C174.323 140.819 174.871 141.367 174.871 142.043V144.276C174.866 144.95 174.321 145.495 173.647 145.5H171.414C170.738 145.5 170.19 144.952 170.19 144.276V142.043C170.168 141.706 170.288 141.375 170.52 141.13C170.752 140.884 171.076 140.747 171.414 140.75V140.819ZM167.759 145.5H165.526V145.431C164.876 145.432 164.338 144.925 164.302 144.276V142.043C164.299 141.718 164.428 141.405 164.658 141.175C164.888 140.945 165.201 140.817 165.526 140.819H167.759C168.435 140.819 168.983 141.367 168.983 142.043V144.276C168.978 144.95 168.433 145.495 167.759 145.5ZM171.414 151.388H173.647C174.321 151.383 174.866 150.838 174.871 150.164V147.931C174.871 147.255 174.323 146.707 173.647 146.707H171.414C171.088 146.704 170.776 146.833 170.546 147.063C170.316 147.293 170.187 147.606 170.19 147.931V150.164C170.226 150.813 170.764 151.32 171.414 151.319V151.388ZM164.302 150.172V147.94V147.862C164.339 147.214 164.877 146.71 165.526 146.715H167.759C168.435 146.715 168.983 147.263 168.983 147.94V150.172C168.978 150.846 168.433 151.392 167.759 151.396H165.526C164.85 151.396 164.302 150.848 164.302 150.172ZM171.414 159.267H173.647C174.321 159.272 174.866 159.817 174.871 160.491V162.724C174.866 163.398 174.321 163.943 173.647 163.948H171.414C170.738 163.948 170.19 163.4 170.19 162.724V160.491C170.168 160.153 170.288 159.822 170.52 159.575C170.752 159.328 171.075 159.189 171.414 159.19V159.267ZM167.759 163.948H165.526V163.871C164.879 163.872 164.343 163.37 164.302 162.724V160.491C164.302 159.815 164.85 159.267 165.526 159.267H167.759C168.433 159.272 168.978 159.817 168.983 160.491V162.724C168.978 163.398 168.433 163.943 167.759 163.948ZM171.414 169.836H173.647C174.323 169.836 174.871 169.288 174.871 168.612V166.379C174.866 165.705 174.321 165.16 173.647 165.155H171.414C170.738 165.155 170.19 165.703 170.19 166.379V168.612C170.226 169.26 170.765 169.764 171.414 169.759V169.836ZM164.302 168.621V166.388V166.302C164.347 165.659 164.882 165.162 165.526 165.164H167.759C168.433 165.168 168.978 165.714 168.983 166.388V168.621C168.983 169.297 168.435 169.845 167.759 169.845H165.526C165.201 169.847 164.888 169.719 164.658 169.489C164.428 169.259 164.299 168.946 164.302 168.621ZM171.414 177.715H173.647C174.321 177.72 174.866 178.265 174.871 178.94V181.172C174.871 181.848 174.323 182.396 173.647 182.396H171.414C171.088 182.399 170.776 182.271 170.546 182.04C170.316 181.81 170.187 181.498 170.19 181.172V178.94C170.166 178.6 170.284 178.266 170.516 178.018C170.749 177.769 171.074 177.628 171.414 177.629V177.715ZM167.759 182.396H165.526V182.31C164.88 182.316 164.343 181.816 164.302 181.172V178.94C164.302 178.263 164.85 177.715 165.526 177.715H167.759C168.433 177.72 168.978 178.265 168.983 178.94V181.172C168.983 181.848 168.435 182.396 167.759 182.396ZM171.414 188.284H173.647C174.319 188.284 174.866 187.742 174.871 187.069V184.827C174.866 184.155 174.319 183.612 173.647 183.612H171.414C171.09 183.61 170.779 183.737 170.549 183.965C170.319 184.193 170.19 184.504 170.19 184.827V187.069C170.235 187.71 170.772 188.204 171.414 188.198V188.284ZM164.302 187.077V184.836V184.741C164.352 184.104 164.887 183.614 165.526 183.621H167.759C168.431 183.621 168.978 184.163 168.983 184.836V187.077C168.978 187.75 168.431 188.293 167.759 188.293H165.526C165.202 188.295 164.891 188.168 164.661 187.94C164.431 187.712 164.302 187.401 164.302 187.077ZM171.414 196.172H173.647C174.323 196.172 174.871 196.72 174.871 197.396V199.629C174.866 200.302 174.319 200.845 173.647 200.845H171.414C171.09 200.847 170.779 200.72 170.549 200.492C170.319 200.264 170.19 199.953 170.19 199.629V197.396C170.161 197.055 170.277 196.717 170.51 196.466C170.743 196.215 171.071 196.074 171.414 196.077V196.172ZM167.759 200.845H165.526V200.75C164.887 200.756 164.352 200.267 164.302 199.629V197.396C164.299 197.071 164.428 196.758 164.658 196.528C164.888 196.298 165.201 196.17 165.526 196.172H167.759C168.435 196.172 168.983 196.72 168.983 197.396V199.629C168.978 200.302 168.431 200.845 167.759 200.845ZM171.414 206.741H173.647C174.321 206.737 174.866 206.191 174.871 205.517V203.19C174.871 202.513 174.323 201.965 173.647 201.965H171.414C171.088 201.963 170.776 202.091 170.546 202.321C170.316 202.551 170.187 202.864 170.19 203.19V205.422C170.19 206.098 170.738 206.646 171.414 206.646V206.741ZM164.302 205.526V203.293V203.19C164.299 202.864 164.428 202.551 164.658 202.321C164.888 202.091 165.201 201.963 165.526 201.965H167.759C168.435 201.965 168.983 202.513 168.983 203.19V205.526C168.978 206.2 168.433 206.745 167.759 206.75H165.526C164.85 206.75 164.302 206.202 164.302 205.526Z" fill="#F9F0C4"/>
<path fill-rule="evenodd" clip-rule="evenodd" d="M188.224 212.129C187.6 212.129 187.095 211.624 187.095 211V176.595C187.095 175.971 187.6 175.465 188.224 175.465C188.525 175.463 188.815 175.581 189.028 175.793C189.242 176.005 189.362 176.294 189.362 176.595V211C189.357 211.625 188.849 212.129 188.224 212.129ZM192.646 175.465C192.346 175.463 192.058 175.581 191.845 175.794C191.633 176.006 191.515 176.294 191.517 176.595V211C191.517 211.624 192.023 212.129 192.646 212.129C193.27 212.129 193.776 211.624 193.776 211V176.595C193.776 175.981 193.286 175.479 192.672 175.465H192.646ZM195.931 176.595C195.931 175.971 196.437 175.465 197.06 175.465H197.086C197.703 175.475 198.198 175.978 198.198 176.595V211C198.193 211.625 197.685 212.129 197.06 212.129C196.437 212.129 195.931 211.624 195.931 211V176.595ZM201.483 175.465C201.182 175.463 200.894 175.581 200.682 175.794C200.469 176.006 200.351 176.294 200.353 176.595V211C200.353 211.624 200.859 212.129 201.483 212.129C202.106 212.129 202.612 211.624 202.612 211V176.595C202.612 175.981 202.122 175.479 201.509 175.465H201.483ZM204.767 176.595C204.767 175.971 205.273 175.465 205.896 175.465H205.922C206.539 175.475 207.034 175.978 207.034 176.595V211C207.03 211.625 206.522 212.129 205.896 212.129C205.273 212.129 204.767 211.624 204.767 211V176.595Z" fill="#E9E7EE"/>
<path fill-rule="evenodd" clip-rule="evenodd" d="M108.5 34.7758H118.621C119.114 34.7759 119.517 34.381 119.526 33.8878V31.0344C119.526 30.5331 119.122 30.1253 118.621 30.1206H108.5C107.998 30.1253 107.591 30.5317 107.586 31.0344V33.862C107.586 34.3667 107.996 34.7758 108.5 34.7758ZM119.526 36.8965V39.7499C119.528 39.9915 119.434 40.2239 119.264 40.3956C119.094 40.5672 118.862 40.6637 118.621 40.6637H108.5C107.995 40.6637 107.586 40.2546 107.586 39.7499V36.8965C107.591 36.3937 107.997 35.9874 108.5 35.9827H118.621C119.122 35.9874 119.526 36.3951 119.526 36.8965ZM119.526 52.3103V49.4482C119.526 49.2119 119.43 48.9858 119.258 48.8229C119.087 48.6599 118.857 48.5743 118.621 48.5861H108.5C108.015 48.5853 107.614 48.9638 107.586 49.4482V52.3103C107.614 52.7946 108.015 53.1731 108.5 53.1723H118.621C118.857 53.1841 119.087 53.0986 119.258 52.9356C119.43 52.7726 119.526 52.5466 119.526 52.3103ZM119.526 55.3361V58.1982C119.526 58.4345 119.43 58.6606 119.258 58.8235C119.087 58.9865 118.857 59.0721 118.621 59.0603H108.5C108.015 59.061 107.614 58.6826 107.586 58.1982V55.3361C107.614 54.8518 108.015 54.4733 108.5 54.4741H118.621C118.857 54.4622 119.087 54.5478 119.258 54.7108C119.43 54.8738 119.526 55.0998 119.526 55.3361ZM119.526 70.7499V67.8878C119.526 67.6515 119.43 67.4255 119.258 67.2625C119.087 67.0995 118.857 67.014 118.621 67.0258H108.5C108.015 67.025 107.614 67.4035 107.586 67.8878V70.7499C107.591 71.2526 107.997 71.659 108.5 71.6637H118.621C119.122 71.659 119.526 71.2512 119.526 70.7499ZM119.526 73.7844V76.6379C119.535 76.8846 119.444 77.1247 119.274 77.3033C119.103 77.482 118.868 77.584 118.621 77.5861H108.5C108.252 77.5839 108.016 77.4822 107.844 77.3038C107.672 77.1254 107.579 76.8855 107.586 76.6379V73.7844C107.586 73.2797 107.995 72.8706 108.5 72.8706H118.621C118.862 72.8706 119.094 72.9671 119.264 73.1388C119.434 73.3104 119.528 73.5428 119.526 73.7844ZM119.526 89.1896V86.3361C119.528 86.0946 119.434 85.8621 119.264 85.6905C119.094 85.5189 118.862 85.4223 118.621 85.4223H108.5C107.995 85.4223 107.586 85.8315 107.586 86.3361V89.1896C107.586 89.6943 107.995 90.1034 108.5 90.1034H118.621C118.862 90.1034 119.094 90.0068 119.264 89.8352C119.434 89.6636 119.528 89.4311 119.526 89.1896ZM119.526 92.2413V95.0775C119.533 95.322 119.441 95.559 119.27 95.7343C119.1 95.9097 118.865 96.0086 118.621 96.0085H108.5C107.995 96.0085 107.586 95.5994 107.586 95.0947V92.2413C107.586 91.9989 107.683 91.7665 107.854 91.5951C108.025 91.4238 108.258 91.3275 108.5 91.3275H118.621C118.862 91.3275 119.094 91.424 119.264 91.5957C119.434 91.7673 119.528 91.9997 119.526 92.2413ZM119.526 107.629V104.776C119.526 104.274 119.122 103.867 118.621 103.862H108.5C107.997 103.867 107.591 104.273 107.586 104.776V107.629C107.586 108.134 107.995 108.543 108.5 108.543H118.621C118.862 108.543 119.094 108.446 119.264 108.275C119.434 108.103 119.528 107.871 119.526 107.629ZM119.526 110.664V113.526C119.538 113.769 119.447 114.007 119.275 114.18C119.102 114.352 118.864 114.443 118.621 114.431H108.5C107.999 114.431 107.591 114.027 107.586 113.526V110.664C107.591 110.161 107.997 109.755 108.5 109.75H118.621C119.122 109.755 119.526 110.162 119.526 110.664ZM119.526 126.078V123.215C119.538 122.972 119.447 122.734 119.275 122.562C119.102 122.389 118.864 122.298 118.621 122.31H108.5C107.999 122.31 107.591 122.714 107.586 123.215V126.078C107.591 126.579 107.999 126.983 108.5 126.983H118.621C118.864 126.995 119.102 126.904 119.275 126.731C119.447 126.559 119.538 126.321 119.526 126.078ZM119.526 129.103V131.965C119.526 132.202 119.43 132.428 119.258 132.591C119.087 132.754 118.857 132.839 118.621 132.828H108.5C108.015 132.828 107.614 132.45 107.586 131.965V129.103C107.614 128.619 108.015 128.241 108.5 128.241H118.621C118.857 128.229 119.087 128.315 119.258 128.478C119.43 128.641 119.526 128.867 119.526 129.103ZM119.526 144.517V141.664C119.528 141.422 119.434 141.19 119.264 141.018C119.094 140.846 118.862 140.75 118.621 140.75H108.5C108.258 140.75 108.025 140.846 107.854 141.018C107.683 141.189 107.586 141.421 107.586 141.664V144.517C107.591 145.02 107.997 145.426 108.5 145.431H118.621C119.122 145.426 119.526 145.018 119.526 144.517ZM119.526 147.552V150.405C119.526 150.906 119.122 151.314 118.621 151.319H108.5C107.997 151.314 107.591 150.908 107.586 150.405V147.552C107.586 147.047 107.995 146.638 108.5 146.638H118.621C118.862 146.638 119.094 146.734 119.264 146.906C119.434 147.078 119.528 147.31 119.526 147.552ZM119.526 162.948V162.931V160.103C119.526 159.602 119.122 159.194 118.621 159.19H108.5C107.997 159.194 107.591 159.601 107.586 160.103V162.931C107.586 163.436 107.995 163.845 108.5 163.845H118.621C118.862 163.845 119.094 163.748 119.264 163.577C119.43 163.409 119.524 163.184 119.526 162.948ZM119.526 165.991V168.845C119.528 169.086 119.434 169.319 119.264 169.49C119.094 169.662 118.862 169.759 118.621 169.759H108.5C108.258 169.759 108.025 169.662 107.854 169.491C107.683 169.32 107.586 169.087 107.586 168.845V165.991C107.591 165.489 107.997 165.082 108.5 165.077H118.621C119.122 165.082 119.526 165.49 119.526 165.991ZM119.526 181.405V178.543C119.526 178.042 119.122 177.634 118.621 177.629H108.5C107.997 177.634 107.591 178.04 107.586 178.543V181.405C107.614 181.889 108.015 182.268 108.5 182.267H118.621C118.857 182.279 119.087 182.193 119.258 182.03C119.43 181.867 119.526 181.641 119.526 181.405ZM119.526 184.431V187.293C119.538 187.537 119.447 187.774 119.275 187.947C119.102 188.119 118.864 188.211 118.621 188.198H108.5C107.999 188.198 107.591 187.794 107.586 187.293V184.431C107.591 183.93 107.999 183.526 108.5 183.526H118.621C118.864 183.513 119.102 183.605 119.275 183.777C119.447 183.95 119.538 184.187 119.526 184.431ZM119.526 199.845V196.983C119.538 196.739 119.447 196.501 119.275 196.329C119.102 196.156 118.864 196.065 118.621 196.078H108.5C107.999 196.077 107.591 196.481 107.586 196.983V199.845C107.591 200.346 107.999 200.75 108.5 200.75H118.621C118.864 200.762 119.102 200.671 119.275 200.499C119.447 200.326 119.538 200.088 119.526 199.845ZM108.5 206.646H118.621C119.122 206.642 119.526 206.234 119.526 205.733V202.879C119.528 202.638 119.434 202.405 119.264 202.234C119.094 202.062 118.862 201.965 118.621 201.965H108.5C107.995 201.965 107.586 202.375 107.586 202.879V205.733C107.591 206.235 107.997 206.642 108.5 206.646Z" fill="#703E97"/>
<path d="M100.965 206.224L99.1377 215.905C99.6369 216.275 100.241 216.477 100.862 216.483H126.551L112.189 196.233L100.965 206.224Z" fill="#9982AB"/>
<path d="M104.413 212.129H123.482L112.215 196.233L102.224 205.112V209.931C102.224 211.142 103.203 212.124 104.413 212.129V212.129Z" fill="#C484BB"/>
<path d="M106.328 208.931H121.25L112.25 196.233L105.164 202.526V207.759C105.162 208.069 105.283 208.367 105.502 208.587C105.72 208.807 106.018 208.931 106.328 208.931Z" fill="#703E97"/>
<path fill-rule="evenodd" clip-rule="evenodd" d="M115.396 200.75H108.5C108.148 200.768 107.82 200.57 107.672 200.25L112.189 196.233L115.396 200.75ZM116.258 201.965H108.5C108.256 201.965 108.022 202.063 107.851 202.236C107.679 202.409 107.584 202.644 107.586 202.888V205.741C107.591 206.244 107.997 206.65 108.5 206.655H118.595C118.88 206.648 119.145 206.508 119.31 206.276L116.258 201.965Z" fill="#C484BB"/>
<path fill-rule="evenodd" clip-rule="evenodd" d="M314.172 223.164H317.62C318.122 223.148 318.548 222.792 318.655 222.302L320.301 215.319H311.448L313.103 222.302C313.209 222.807 313.656 223.167 314.172 223.164ZM251.163 215.319L249.517 222.302L249.534 222.319C249.421 222.803 248.996 223.15 248.5 223.164H245.051C244.535 223.167 244.089 222.807 243.982 222.302L242.327 215.319H251.163Z" fill="#9982AB"/>
<path fill-rule="evenodd" clip-rule="evenodd" d="M289.086 223.164H292.534C293.036 223.148 293.463 222.792 293.569 222.302L295.224 215.319H286.371L288.017 222.302C288.127 222.805 288.572 223.164 289.086 223.164ZM226.086 215.319L224.431 222.302V222.319C224.322 222.798 223.905 223.145 223.414 223.164H219.966C219.451 223.164 219.006 222.805 218.897 222.302L217.25 215.319H226.086Z" fill="#E9E7EE"/>
<path fill-rule="evenodd" clip-rule="evenodd" d="M217.534 216.379H225.845L225.293 218.664H218.077L217.534 216.379ZM287.207 218.698H294.474L295.008 216.414H286.663L287.207 218.698Z" fill="#9982AB"/>
<rect x="227.604" y="93.6553" width="97.0517" height="122.836" rx="3.45" fill="#9982AB"/>
<rect x="212.939" y="93.6553" width="86.6379" height="122.836" rx="3.45" fill="#E9E7EE"/>
<rect x="295.268" y="98.0088" width="114.121" height="78.0172" rx="2.54" transform="rotate(90 295.268 98.0088)" fill="#703E97"/>
<path fill-rule="evenodd" clip-rule="evenodd" d="M221.318 116.715H291.189C291.497 116.718 291.793 116.597 292.012 116.38C292.23 116.163 292.353 115.868 292.353 115.56V102.853C292.353 102.211 291.832 101.689 291.189 101.689H221.318C220.676 101.689 220.155 102.211 220.155 102.853V115.56C220.155 115.868 220.278 116.163 220.496 116.38C220.715 116.597 221.011 116.718 221.318 116.715ZM292.353 121.293V134C292.353 134.315 292.226 134.616 292 134.835C291.774 135.054 291.469 135.173 291.155 135.164H221.284C220.641 135.164 220.12 134.643 220.12 134V121.293C220.12 120.979 220.248 120.678 220.474 120.46C220.7 120.243 221.005 120.126 221.318 120.138H291.189C291.497 120.135 291.793 120.256 292.012 120.473C292.23 120.69 292.353 120.985 292.353 121.293ZM292.353 152.439V139.741C292.355 139.432 292.233 139.134 292.015 138.916C291.796 138.697 291.498 138.575 291.189 138.577H221.318C221.003 138.566 220.697 138.683 220.47 138.903C220.244 139.123 220.118 139.426 220.12 139.741V152.439C220.118 152.749 220.24 153.046 220.458 153.265C220.677 153.484 220.975 153.606 221.284 153.603H291.155C291.47 153.615 291.776 153.497 292.003 153.278C292.229 153.058 292.355 152.755 292.353 152.439ZM292.353 158.181V170.888C292.353 171.196 292.23 171.491 292.012 171.708C291.793 171.925 291.497 172.045 291.189 172.043H221.318C221.011 172.045 220.715 171.925 220.496 171.708C220.278 171.491 220.155 171.196 220.155 170.888V158.181C220.155 157.538 220.676 157.017 221.318 157.017H291.189C291.832 157.017 292.353 157.538 292.353 158.181ZM292.353 189.327V176.62C292.353 176.313 292.23 176.017 292.012 175.801C291.793 175.584 291.497 175.463 291.189 175.465H221.318C221.011 175.463 220.715 175.584 220.496 175.801C220.278 176.017 220.155 176.313 220.155 176.62V189.327C220.155 189.635 220.278 189.93 220.496 190.147C220.715 190.364 221.011 190.485 221.318 190.483H291.189C291.497 190.485 291.793 190.364 292.012 190.147C292.23 189.93 292.353 189.635 292.353 189.327ZM292.353 195.06V207.758C292.353 208.401 291.832 208.922 291.189 208.922H221.318C220.676 208.922 220.155 208.401 220.155 207.758V195.06C220.155 194.752 220.278 194.457 220.496 194.24C220.715 194.023 221.011 193.903 221.318 193.905H291.189C291.497 193.903 291.793 194.023 292.012 194.24C292.23 194.457 292.353 194.752 292.353 195.06Z" fill="#9982AB"/>
<path fill-rule="evenodd" clip-rule="evenodd" d="M238.224 110.121H275.293C275.769 110.121 276.155 109.735 276.155 109.258V109.155C276.155 108.679 275.769 108.293 275.293 108.293H238.224C237.748 108.293 237.362 108.679 237.362 109.155V109.258C237.362 109.735 237.748 110.121 238.224 110.121ZM276.155 127.586V127.698C276.146 128.168 275.763 128.543 275.293 128.543H238.224C237.748 128.543 237.362 128.157 237.362 127.681V127.586C237.362 127.11 237.748 126.724 238.224 126.724H275.293C275.769 126.724 276.155 127.11 276.155 127.586ZM276.155 146.138V146.043C276.155 145.567 275.769 145.181 275.293 145.181H238.224C237.748 145.181 237.362 145.567 237.362 146.043V146.138C237.362 146.614 237.748 147 238.224 147H275.293C275.769 147 276.155 146.614 276.155 146.138ZM276.155 164.483V164.577C276.155 165.054 275.769 165.44 275.293 165.44H238.224C237.748 165.44 237.362 165.054 237.362 164.577V164.483C237.362 164.007 237.748 163.621 238.224 163.621H275.293C275.769 163.621 276.155 164.007 276.155 164.483ZM276.155 183.026V182.922C276.155 182.446 275.769 182.06 275.293 182.06H238.224C237.748 182.06 237.362 182.446 237.362 182.922V183.026C237.362 183.502 237.748 183.888 238.224 183.888H275.293C275.769 183.888 276.155 183.502 276.155 183.026ZM276.155 201.371V201.465C276.155 201.941 275.769 202.327 275.293 202.327H238.224C237.748 202.327 237.362 201.941 237.362 201.465V201.371C237.362 200.894 237.748 200.508 238.224 200.508H275.293C275.769 200.508 276.155 200.894 276.155 201.371Z" fill="#A8499A"/>
<path fill-rule="evenodd" clip-rule="evenodd" d="M223.569 108.543H233.646C233.895 108.555 234.138 108.464 234.317 108.291C234.497 108.118 234.597 107.879 234.594 107.63V104.776C234.594 104.275 234.191 103.867 233.689 103.862H223.569C223.067 103.867 222.663 104.275 222.663 104.776V107.63C222.661 107.871 222.755 108.104 222.925 108.275C223.095 108.447 223.327 108.543 223.569 108.543ZM234.551 110.664V113.526C234.563 113.762 234.477 113.993 234.314 114.164C234.151 114.335 233.925 114.432 233.689 114.431H223.568C223.325 114.444 223.087 114.352 222.915 114.18C222.742 114.007 222.651 113.77 222.663 113.526V110.664C222.663 110.163 223.067 109.755 223.568 109.75H233.646C234.147 109.755 234.551 110.163 234.551 110.664ZM234.551 126.078V123.216C234.564 122.972 234.472 122.734 234.3 122.562C234.127 122.389 233.89 122.298 233.646 122.311H223.568C223.325 122.298 223.087 122.389 222.915 122.562C222.742 122.734 222.651 122.972 222.663 123.216V126.078C222.651 126.322 222.742 126.559 222.915 126.732C223.087 126.904 223.325 126.996 223.568 126.983H233.689C233.925 126.983 234.151 126.887 234.314 126.715C234.477 126.544 234.563 126.314 234.551 126.078ZM234.551 129.104V131.966C234.551 132.194 234.46 132.414 234.299 132.575C234.137 132.737 233.918 132.828 233.689 132.828H223.568C223.332 132.84 223.102 132.754 222.931 132.591C222.76 132.428 222.663 132.202 222.663 131.966V129.104C222.663 128.867 222.76 128.641 222.931 128.478C223.102 128.315 223.332 128.23 223.568 128.242H233.646C233.882 128.23 234.113 128.315 234.284 128.478C234.455 128.641 234.551 128.867 234.551 129.104ZM234.551 144.517V141.664C234.553 141.422 234.459 141.19 234.289 141.018C234.119 140.847 233.888 140.75 233.646 140.75H223.568C223.327 140.75 223.095 140.847 222.925 141.018C222.755 141.19 222.661 141.422 222.663 141.664V144.517C222.663 145.019 223.067 145.427 223.568 145.431H233.689C234.173 145.404 234.552 145.003 234.551 144.517ZM234.551 147.552V150.405C234.552 150.891 234.173 151.292 233.689 151.319H223.568C223.067 151.314 222.663 150.907 222.663 150.405V147.552C222.661 147.31 222.755 147.078 222.925 146.906C223.095 146.735 223.327 146.638 223.568 146.638H233.646C233.888 146.638 234.119 146.735 234.289 146.906C234.459 147.078 234.553 147.31 234.551 147.552ZM234.551 162.931V160.104C234.551 159.602 234.147 159.195 233.646 159.19H223.568C223.067 159.195 222.663 159.602 222.663 160.104V162.931C222.661 163.173 222.755 163.405 222.925 163.577C223.095 163.749 223.327 163.845 223.568 163.845H233.689C234.169 163.822 234.546 163.429 234.551 162.951V162.931ZM234.551 165.992V168.845C234.556 169.332 234.175 169.736 233.689 169.759H223.568C223.327 169.759 223.095 169.662 222.925 169.491C222.755 169.319 222.661 169.087 222.663 168.845V165.992C222.663 165.49 223.067 165.083 223.568 165.078H233.646C234.147 165.083 234.551 165.49 234.551 165.992ZM234.551 181.405V178.543C234.551 178.042 234.147 177.634 233.646 177.63H223.568C223.067 177.634 222.663 178.042 222.663 178.543V181.405C222.663 181.642 222.76 181.868 222.931 182.031C223.102 182.194 223.332 182.279 223.568 182.267H233.689C234.165 182.267 234.551 181.882 234.551 181.405ZM234.551 184.431V187.293C234.563 187.529 234.477 187.76 234.314 187.931C234.151 188.102 233.925 188.199 233.689 188.199H223.568C223.325 188.211 223.087 188.12 222.915 187.947C222.742 187.775 222.651 187.537 222.663 187.293V184.431C222.651 184.188 222.742 183.95 222.915 183.777C223.087 183.605 223.325 183.514 223.568 183.526H233.646C233.89 183.514 234.127 183.605 234.3 183.777C234.472 183.95 234.564 184.188 234.551 184.431ZM234.551 199.845V196.983C234.564 196.739 234.472 196.502 234.3 196.329C234.127 196.157 233.89 196.065 233.646 196.078H223.568C223.325 196.065 223.087 196.157 222.915 196.329C222.742 196.502 222.651 196.739 222.663 196.983V199.845C222.651 200.089 222.742 200.326 222.915 200.499C223.087 200.671 223.325 200.763 223.568 200.75H233.689C233.925 200.751 234.151 200.654 234.314 200.483C234.477 200.312 234.563 200.081 234.551 199.845ZM234.551 202.88V205.733C234.552 206.218 234.173 206.619 233.689 206.647H223.568C223.067 206.642 222.663 206.234 222.663 205.733V202.88C222.661 202.638 222.755 202.406 222.925 202.234C223.095 202.062 223.327 201.966 223.568 201.966H233.646C233.888 201.966 234.119 202.062 234.289 202.234C234.459 202.406 234.553 202.638 234.551 202.88Z" fill="#703E97"/>
<path d="M219.44 98.0088C218.229 98.0135 217.25 98.9963 217.25 100.207V209.931C217.25 211.142 218.229 212.125 219.44 212.129H244.552L224.879 98.0088H219.44Z" fill="#C484BB"/>
<path fill-rule="evenodd" clip-rule="evenodd" d="M221.31 101.689C220.667 101.689 220.146 102.211 220.146 102.853V115.56C220.146 115.868 220.269 116.163 220.487 116.38C220.706 116.597 221.002 116.718 221.31 116.715H228.094L225.508 101.689H221.31ZM221.31 120.138C220.998 120.128 220.695 120.246 220.471 120.464C220.246 120.681 220.12 120.98 220.12 121.293V134C220.12 134.643 220.641 135.164 221.284 135.164H231.327L228.741 120.138H221.31ZM240.81 190.517L238.224 175.465H221.318C221.011 175.463 220.715 175.584 220.496 175.801C220.278 176.017 220.155 176.313 220.155 176.62V189.362C220.155 189.67 220.278 189.965 220.496 190.182C220.715 190.399 221.011 190.519 221.318 190.517H240.81ZM220.487 194.24C220.706 194.023 221.002 193.903 221.31 193.905L241.413 193.896L243.999 208.922H221.31C220.667 208.922 220.146 208.401 220.146 207.758V195.06C220.146 194.752 220.269 194.457 220.487 194.24ZM220.146 158.181C220.146 157.538 220.667 157.017 221.31 157.017H235.051L237.637 172.043H221.31C221.002 172.045 220.706 171.925 220.487 171.708C220.269 171.491 220.146 171.196 220.146 170.888V158.181ZM220.467 138.906C220.692 138.687 220.996 138.568 221.31 138.577H231.844L234.43 153.603H221.284C220.975 153.606 220.677 153.484 220.458 153.265C220.24 153.046 220.118 152.749 220.12 152.439V139.741C220.118 139.427 220.243 139.126 220.467 138.906Z" fill="#703E97"/>
<path fill-rule="evenodd" clip-rule="evenodd" d="M282.784 108.543H280.551C280.226 108.546 279.913 108.417 279.683 108.187C279.453 107.957 279.325 107.645 279.327 107.319V105.086C279.327 104.41 279.875 103.862 280.551 103.862H282.784C283.458 103.867 284.004 104.412 284.008 105.086V107.319C284.008 107.995 283.46 108.543 282.784 108.543ZM288.672 103.862H286.439C285.763 103.862 285.215 104.41 285.215 105.086V107.319C285.213 107.645 285.341 107.957 285.571 108.187C285.801 108.417 286.114 108.546 286.439 108.543H288.672C289.348 108.543 289.896 107.995 289.896 107.319V105.086C289.891 104.412 289.346 103.867 288.672 103.862ZM286.439 114.431H288.672C289.348 114.431 289.896 113.883 289.896 113.207V110.974C289.891 110.3 289.346 109.755 288.672 109.75H286.439C285.763 109.75 285.215 110.298 285.215 110.974V113.207C285.213 113.533 285.341 113.845 285.571 114.075C285.801 114.305 286.114 114.434 286.439 114.431ZM279.327 113.216V110.983V110.974C279.332 110.302 279.879 109.759 280.551 109.759H282.784C283.458 109.764 284.004 110.309 284.008 110.983V113.216C284.008 113.892 283.46 114.44 282.784 114.44H280.551C280.226 114.442 279.913 114.314 279.683 114.084C279.453 113.854 279.325 113.541 279.327 113.216ZM286.439 122.319H288.672C289.345 122.319 289.891 122.862 289.896 123.535V125.776C289.891 126.449 289.345 126.992 288.672 126.992H286.439C286.115 126.994 285.804 126.867 285.574 126.639C285.344 126.41 285.215 126.1 285.215 125.776V123.535C285.213 123.209 285.341 122.897 285.571 122.667C285.801 122.436 286.114 122.308 286.439 122.311V122.319ZM282.784 126.992H280.551V126.983C280.229 126.985 279.919 126.859 279.689 126.633C279.46 126.407 279.329 126.098 279.327 125.776V123.535C279.327 123.211 279.456 122.9 279.686 122.672C279.916 122.444 280.227 122.317 280.551 122.319H282.784C283.457 122.319 284.003 122.862 284.008 123.535V125.776C284.003 126.449 283.457 126.992 282.784 126.992ZM286.439 132.88H288.672C289.345 132.88 289.891 132.337 289.896 131.664V129.423C289.891 128.75 289.345 128.207 288.672 128.207H286.439C286.115 128.205 285.804 128.332 285.574 128.56C285.344 128.788 285.215 129.099 285.215 129.423V131.664C285.217 131.986 285.348 132.295 285.577 132.521C285.807 132.747 286.117 132.873 286.439 132.871V132.88ZM279.327 131.673V129.431V129.414C279.337 128.746 279.883 128.211 280.551 128.216H282.784C283.457 128.216 284.003 128.759 284.008 129.431V131.673C284.003 132.345 283.457 132.888 282.784 132.888H280.551C280.227 132.89 279.916 132.763 279.686 132.535C279.456 132.307 279.327 131.997 279.327 131.673ZM286.439 140.767H288.672C289.348 140.767 289.896 141.316 289.896 141.992V144.224C289.891 144.898 289.346 145.444 288.672 145.449H286.439C285.763 145.449 285.215 144.9 285.215 144.224V141.992C285.208 141.663 285.334 141.346 285.565 141.112C285.795 140.878 286.111 140.748 286.439 140.75V140.767ZM282.784 145.449H280.551V145.431C279.882 145.431 279.337 144.894 279.327 144.224V141.992C279.325 141.666 279.453 141.354 279.683 141.123C279.913 140.893 280.226 140.765 280.551 140.767H282.784C283.46 140.767 284.008 141.316 284.008 141.992V144.224C284.004 144.898 283.458 145.444 282.784 145.449ZM286.439 151.336H288.672C289.346 151.332 289.891 150.786 289.896 150.112V147.88C289.896 147.203 289.348 146.655 288.672 146.655H286.439C286.114 146.653 285.801 146.781 285.571 147.011C285.341 147.241 285.213 147.554 285.215 147.88V150.112C285.225 150.782 285.77 151.319 286.439 151.319V151.336ZM279.327 150.121V147.888V147.862C279.337 147.194 279.883 146.659 280.551 146.664H282.784C283.109 146.664 283.42 146.793 283.65 147.023C283.879 147.252 284.008 147.564 284.008 147.888V150.121C284.004 150.795 283.458 151.34 282.784 151.345H280.551C279.875 151.345 279.327 150.797 279.327 150.121ZM286.439 159.216H288.672C289.346 159.22 289.891 159.766 289.896 160.44V162.673C289.891 163.347 289.346 163.892 288.672 163.897H286.439C285.763 163.897 285.215 163.349 285.215 162.673V160.44C285.208 160.111 285.334 159.793 285.564 159.558C285.795 159.322 286.11 159.19 286.439 159.19V159.216ZM282.784 163.897H280.551V163.871C279.885 163.871 279.341 163.339 279.327 162.673V160.44C279.327 159.764 279.875 159.216 280.551 159.216H282.784C283.458 159.22 284.004 159.766 284.008 160.44V162.673C284.004 163.347 283.458 163.892 282.784 163.897ZM286.439 169.785H288.672C289.348 169.785 289.896 169.237 289.896 168.561V166.328C289.891 165.654 289.346 165.108 288.672 165.104H286.439C285.763 165.104 285.215 165.652 285.215 166.328V168.561C285.225 169.229 285.771 169.764 286.439 169.759V169.785ZM279.327 168.569V166.336V166.302C279.346 165.639 279.888 165.112 280.551 165.112H282.784C283.458 165.117 284.004 165.662 284.008 166.336V168.569C284.008 169.245 283.46 169.793 282.784 169.793H280.551C280.226 169.796 279.913 169.667 279.683 169.437C279.453 169.207 279.325 168.895 279.327 168.569ZM286.439 177.664H288.672C289.346 177.669 289.891 178.214 289.896 178.888V181.121C289.896 181.797 289.348 182.345 288.672 182.345H286.439C286.114 182.347 285.801 182.219 285.571 181.989C285.341 181.759 285.213 181.446 285.215 181.121V178.888C285.206 178.558 285.331 178.237 285.561 178C285.792 177.763 286.109 177.629 286.439 177.63V177.664ZM282.784 182.345H280.551V182.311C279.887 182.315 279.341 181.785 279.327 181.121V178.888C279.327 178.212 279.875 177.664 280.551 177.664H282.784C283.458 177.669 284.004 178.214 284.008 178.888V181.121C284.008 181.797 283.46 182.345 282.784 182.345ZM286.439 188.233H288.672C289.345 188.233 289.891 187.69 289.896 187.017V184.776C289.891 184.103 289.345 183.561 288.672 183.561H286.439C286.115 183.558 285.804 183.685 285.574 183.914C285.344 184.142 285.215 184.452 285.215 184.776V187.017C285.234 187.679 285.778 188.203 286.439 188.199V188.233ZM279.327 187.026V184.785V184.742C279.35 184.084 279.893 183.564 280.551 183.569H282.784C283.457 183.569 284.003 184.112 284.008 184.785V187.026C284.003 187.699 283.457 188.242 282.784 188.242H280.551C280.227 188.244 279.916 188.117 279.686 187.889C279.456 187.66 279.327 187.35 279.327 187.026ZM286.439 196.121H288.672C289.348 196.121 289.896 196.669 289.896 197.345V199.578C289.891 200.251 289.345 200.793 288.672 200.793H286.439C286.115 200.796 285.804 200.669 285.574 200.44C285.344 200.212 285.215 199.902 285.215 199.578V197.345C285.201 197.012 285.324 196.688 285.555 196.449C285.787 196.209 286.106 196.075 286.439 196.078V196.121ZM282.784 200.793H280.551V200.75C279.893 200.755 279.35 200.236 279.327 199.578V197.345C279.325 197.02 279.453 196.707 279.683 196.477C279.913 196.247 280.226 196.119 280.551 196.121H282.784C283.46 196.121 284.008 196.669 284.008 197.345V199.578C284.003 200.251 283.457 200.793 282.784 200.793ZM286.439 206.69H288.672C289.346 206.685 289.891 206.14 289.896 205.466V203.19C289.896 202.514 289.348 201.966 288.672 201.966H286.439C286.114 201.963 285.801 202.092 285.571 202.322C285.341 202.552 285.213 202.865 285.215 203.19V205.423C285.215 206.099 285.763 206.647 286.439 206.647V206.69ZM279.327 205.474V203.242V203.19C279.325 202.865 279.453 202.552 279.683 202.322C279.913 202.092 280.226 201.963 280.551 201.966H282.784C283.109 201.966 283.42 202.095 283.65 202.324C283.879 202.554 284.008 202.865 284.008 203.19V205.474C284.004 206.148 283.458 206.694 282.784 206.699H280.551C279.875 206.699 279.327 206.15 279.327 205.474Z" fill="#F9F0C4"/>
<path fill-rule="evenodd" clip-rule="evenodd" d="M222.663 104.776C222.663 104.275 223.067 103.867 223.568 103.862H225.931L226.732 108.543H223.568C223.327 108.543 223.095 108.447 222.925 108.275C222.755 108.104 222.661 107.871 222.663 107.63V104.776ZM223.568 109.75C223.067 109.755 222.663 110.163 222.663 110.664V113.517C222.661 113.759 222.755 113.991 222.925 114.163C223.095 114.335 223.327 114.431 223.568 114.431H227.749L226.948 109.75H223.568ZM223.568 146.638C223.327 146.638 223.095 146.735 222.925 146.906C222.755 147.078 222.661 147.31 222.663 147.552V150.405C222.663 150.907 223.067 151.314 223.568 151.319H233.689C233.831 151.316 233.971 151.277 234.094 151.207L233.301 146.638H223.568ZM234.289 163.577C234.459 163.405 234.554 163.173 234.551 162.931V160.078C234.551 159.576 234.147 159.169 233.646 159.164H223.525C223.024 159.169 222.62 159.576 222.62 160.078V162.931C222.618 163.18 222.718 163.42 222.897 163.593C223.077 163.766 223.319 163.857 223.568 163.845H233.646C233.888 163.845 234.119 163.749 234.289 163.577ZM223.568 196.052H233.646V196.078C233.897 196.052 234.146 196.138 234.329 196.312C234.511 196.486 234.608 196.731 234.594 196.983V199.819C234.607 200.063 234.515 200.3 234.343 200.473C234.17 200.646 233.933 200.737 233.689 200.724H223.568C223.325 200.737 223.087 200.646 222.915 200.473C222.742 200.3 222.651 200.063 222.663 199.819V196.957C222.651 196.713 222.742 196.476 222.915 196.303C223.087 196.131 223.325 196.039 223.568 196.052ZM234.343 183.777C234.515 183.95 234.607 184.188 234.594 184.431V187.293C234.607 187.537 234.515 187.775 234.343 187.947C234.17 188.12 233.933 188.211 233.689 188.199H223.568C223.325 188.211 223.087 188.12 222.915 187.947C222.742 187.775 222.651 187.537 222.663 187.293V184.431C222.651 184.188 222.742 183.95 222.915 183.777C223.087 183.605 223.325 183.514 223.568 183.526H233.689C233.933 183.514 234.17 183.605 234.343 183.777ZM234.594 178.543C234.594 178.042 234.19 177.634 233.689 177.63H223.568C223.067 177.634 222.663 178.042 222.663 178.543V181.405C222.663 181.642 222.76 181.868 222.931 182.031C223.102 182.194 223.332 182.279 223.568 182.267H233.689C233.925 182.279 234.156 182.194 234.327 182.031C234.498 181.868 234.595 181.642 234.594 181.405V178.543ZM233.689 165.078C234.19 165.083 234.594 165.49 234.594 165.992V168.845C234.597 169.087 234.502 169.319 234.332 169.491C234.162 169.662 233.931 169.759 233.689 169.759H223.568C223.327 169.759 223.095 169.662 222.925 169.491C222.755 169.319 222.661 169.087 222.663 168.845V165.992C222.663 165.49 223.067 165.083 223.568 165.078H233.689ZM222.663 131.966C222.663 132.202 222.76 132.428 222.931 132.591C223.102 132.754 223.332 132.84 223.568 132.828H230.931L230.12 128.155H223.568C223.332 128.144 223.102 128.229 222.931 128.392C222.76 128.555 222.663 128.781 222.663 129.017V131.966ZM233.689 206.647H223.568C223.067 206.642 222.663 206.234 222.663 205.733V202.88C222.661 202.638 222.755 202.406 222.925 202.234C223.095 202.062 223.327 201.966 223.568 201.966H233.689C233.931 201.966 234.162 202.062 234.332 202.234C234.502 202.406 234.597 202.638 234.594 202.88V205.733C234.594 206.234 234.19 206.642 233.689 206.647ZM223.568 126.983H229.913L229.112 122.311H223.568C223.325 122.298 223.087 122.389 222.915 122.562C222.742 122.734 222.651 122.972 222.663 123.216V126.078C222.651 126.322 222.742 126.559 222.915 126.732C223.087 126.904 223.325 126.996 223.568 126.983ZM223.568 145.431C223.067 145.427 222.663 145.019 222.663 144.517V141.664C222.661 141.422 222.755 141.19 222.925 141.018C223.095 140.847 223.327 140.75 223.568 140.75H232.249L233.051 145.431H223.568Z" fill="#C484BB"/>
<path fill-rule="evenodd" clip-rule="evenodd" d="M237.362 182.922C237.362 182.446 237.748 182.06 238.224 182.06H239.336L239.647 183.888H238.224C237.748 183.888 237.362 183.502 237.362 183.026V182.922ZM242.845 202.328L242.535 200.509H238.224C237.748 200.509 237.362 200.895 237.362 201.371V201.465C237.362 201.942 237.748 202.328 238.224 202.328H242.845Z" fill="#D74DEA"/>
<path fill-rule="evenodd" clip-rule="evenodd" d="M303.276 212.129C302.652 212.129 302.146 211.624 302.146 211V176.595C302.146 175.971 302.652 175.465 303.276 175.465C303.577 175.463 303.866 175.581 304.08 175.793C304.294 176.005 304.414 176.294 304.414 176.595V211C304.409 211.625 303.901 212.129 303.276 212.129ZM307.698 175.465C307.398 175.463 307.109 175.581 306.897 175.794C306.685 176.006 306.567 176.294 306.569 176.595V211C306.569 211.624 307.075 212.129 307.698 212.129C308.322 212.129 308.828 211.624 308.828 211V176.595C308.828 175.971 308.322 175.465 307.698 175.465ZM310.983 176.595C310.983 175.971 311.488 175.465 312.112 175.465C312.413 175.463 312.702 175.581 312.916 175.793C313.13 176.005 313.25 176.294 313.25 176.595V211C313.245 211.625 312.737 212.129 312.112 212.129C311.488 212.129 310.983 211.624 310.983 211V176.595ZM316.534 175.465C316.234 175.463 315.946 175.581 315.733 175.794C315.521 176.006 315.403 176.294 315.405 176.595V211C315.405 211.624 315.911 212.129 316.534 212.129C317.158 212.129 317.664 211.624 317.664 211V176.595C317.664 175.971 317.158 175.465 316.534 175.465ZM319.819 176.595C319.819 175.971 320.325 175.465 320.948 175.465H320.983C321.596 175.479 322.086 175.981 322.086 176.595V211C322.081 211.625 321.573 212.129 320.948 212.129C320.325 212.129 319.819 211.624 319.819 211V176.595Z" fill="#E9E7EE"/>
<path d="M272.482 86.1205C272.698 78.8878 277.008 66.7671 292.741 66.7671C309.836 66.7671 315.155 85.3102 312.922 92.4567C311.775 96.1292 301.793 90.043 289.577 91.2498C282.922 91.905 276.525 93.5085 271.534 93.655C267.931 93.7585 265.06 92.9912 263.353 91.0688C263.153 90.8514 263.072 90.5501 263.135 90.2617C263.199 89.9732 263.399 89.7339 263.672 89.6205C265.051 89.043 267.87 87.9309 272.482 86.1205Z" fill="#EBCC48"/>
<path fill-rule="evenodd" clip-rule="evenodd" d="M303.922 70.1294C305.667 71.577 306.927 73.5231 307.535 75.707C301.352 70.908 292.951 70.1184 285.983 73.6811C281.457 76.2673 278.414 80.8535 276.75 85.6725C275.706 85.5937 274.658 85.5736 273.612 85.6122C273.377 85.6215 273.193 85.817 273.198 86.0518C273.208 86.2912 273.407 86.4791 273.647 86.4742C275.526 86.4139 278.431 86.5518 279.009 87.0604C279.966 87.9225 281.431 88.6897 285.604 88.5259C289.816 88.4043 294.026 88.8098 298.138 89.7328C298.379 90.2979 298.268 90.9515 297.854 91.4053C300.633 91.745 303.159 92.2978 305.317 92.7701L305.317 92.7701C309.51 93.6876 312.313 94.301 312.888 92.457C314.569 87.1984 312.121 75.8018 303.922 70.1294ZM280.035 86.7501C280.717 83.8224 282.006 81.0706 283.819 78.6725C289.293 71.5432 300.431 71.1294 307.621 76.0863C308.828 81.0477 308.117 86.2822 305.629 90.7415C304.707 90.5346 303.698 90.2846 302.603 89.9742C299.495 89.0968 296.325 88.4542 293.121 88.0518L291.716 81.5173C291.596 80.8402 291.015 80.342 290.328 80.3277H287.241C286.554 80.342 285.973 80.8402 285.853 81.5173L284.517 87.7242C282 87.6811 280.793 87.2673 280.035 86.7501ZM285.405 87.6639H285.612H285.638C287.833 87.5842 290.031 87.6562 292.216 87.8794L290.879 81.6294C290.836 81.3522 290.607 81.1415 290.328 81.1208H287.241C286.962 81.1415 286.733 81.3522 286.69 81.6294L285.405 87.6639Z" fill="#E39C52"/>
<path d="M23.1205 200.371H67.1636V190.198L53.8015 172.164H12.3877L23.1205 200.371V200.371Z" fill="#703E97"/>
<path d="M23.1204 200.371H67.1635V194.362H20.8359L23.1204 200.371V200.371Z" fill="#D74DEA"/>
<path fill-rule="evenodd" clip-rule="evenodd" d="M11.4742 171.216H54.2329L78.388 195.354H35.6122C28.8862 201.645 18.3826 201.47 11.8701 194.958C5.35757 188.445 5.18245 177.942 11.4742 171.216ZM53.5346 172.94H15.6036L36.2932 193.629H74.2243L53.5346 172.94Z" fill="#EBCC48"/>
<path d="M54.2672 171.181V171.181C47.9754 177.907 48.1505 188.411 54.6631 194.923C61.1756 201.436 71.6792 201.611 78.4051 195.319L54.2672 171.181Z" fill="#9982AB"/>
<path fill-rule="evenodd" clip-rule="evenodd" d="M11.5 171.216H54.2672L78.4224 195.354H35.6379L11.5 171.216ZM53.569 172.94H15.6379L36.3276 193.629H74.2586L53.569 172.94Z" fill="#E39C52"/>
<path d="M76.3897 183.889L81.3582 185.092L73.7613 216.47C73.4252 217.858 72.0274 218.711 70.6392 218.375V218.375C69.2509 218.038 68.398 216.641 68.7341 215.252L76.3311 183.875L76.3897 183.889Z" fill="#A8499A"/>
<path d="M68.2236 170.371L64.6201 173.146L66.5598 177.267C67.0856 175.086 68.0684 175.457 70.1977 175.974L70.5339 174.586L70.8787 173.19C68.7408 172.672 67.6977 172.552 68.2236 170.371Z" fill="#E9E7EE"/>
<path fill-rule="evenodd" clip-rule="evenodd" d="M65.5 177.698L62.5776 176.991C62.0826 176.872 61.7777 176.374 61.8966 175.879L63.4397 169.483C63.4968 169.243 63.6474 169.036 63.8579 168.908C64.0684 168.78 64.3214 168.742 64.5604 168.802L67.4828 169.509C67.9778 169.628 68.2827 170.125 68.1638 170.621L66.6207 177.017C66.5636 177.257 66.413 177.464 66.2025 177.592C65.992 177.719 65.739 177.758 65.5 177.698ZM94.638 189.655C94.7536 189.686 94.8768 189.669 94.9793 189.607C95.0818 189.545 95.1547 189.444 95.1811 189.328C97.1207 180.888 95.1811 176.215 85.4224 173.862L72.2328 170.69C71.8505 170.603 71.4683 170.836 71.3707 171.215L69.7242 178.017C69.6371 178.399 69.8703 178.782 70.25 178.879L73.0345 179.552C74.569 179.922 75.514 181.465 75.1466 183L74.1811 186.974C74.0994 187.358 74.3352 187.738 74.7156 187.836L80.9397 189.345C81.3247 189.431 81.708 189.194 81.8018 188.81L82.3621 186.5C83.0518 183.629 84.5949 179.405 89.3707 180.56C95.4052 182.009 94.6466 187.543 94.3104 189.121C94.2565 189.356 94.4028 189.591 94.638 189.646V189.655ZM68.4828 189.793L72.4569 208.621V208.569C74.8752 209.004 76.8238 210.798 77.4569 213.172C78.0221 215.516 77.1865 217.976 75.3104 219.491C75.1478 219.614 74.9339 219.644 74.7435 219.573C74.5531 219.501 74.4124 219.337 74.3707 219.138L73.0259 212.793L69.1207 213.655L70.4656 219.991C70.5108 220.19 70.4494 220.398 70.3034 220.541C70.1574 220.683 69.9478 220.74 69.75 220.69C67.3931 220.048 65.6257 218.093 65.2254 215.683C64.825 213.274 65.8651 210.852 67.888 209.483L63.9138 190.741C61.4761 190.297 59.5219 188.471 58.9138 186.069C58.368 183.741 59.202 181.306 61.0604 179.802C61.2203 179.679 61.4321 179.647 61.6212 179.717C61.8103 179.787 61.9501 179.949 61.9914 180.146L63.3362 186.491L67.25 185.629L65.9052 179.284C65.86 179.085 65.9214 178.877 66.0674 178.735C66.2134 178.592 66.423 178.536 66.6207 178.586C68.9776 179.227 70.745 181.183 71.1454 183.592C71.5457 186.002 70.5057 188.424 68.4828 189.793Z" fill="#F9F0C4"/>
<rect x="34.7676" y="195.216" width="77.8103" height="33.5603" rx="2.57" fill="#E39C52"/>
<path d="M96.7414 210.448H84.7759C82.443 210.448 80.5518 208.557 80.5518 206.224V200.862C80.5518 200.548 80.8065 200.293 81.1207 200.293H83.4311C83.7453 200.293 84 200.548 84 200.862V206.198C84 206.627 84.3474 206.974 84.7759 206.974H96.7587C97.1872 206.974 97.5345 206.627 97.5345 206.198V200.862C97.5391 200.55 97.7912 200.298 98.1035 200.293H100.422C100.733 200.298 100.983 200.551 100.983 200.862V206.198C100.99 207.326 100.545 208.41 99.7487 209.208C98.952 210.006 97.8692 210.453 96.7414 210.448V210.448Z" fill="#EBCC48"/>
<path fill-rule="evenodd" clip-rule="evenodd" d="M68.9219 228.767V195.216H55.034L59.5857 211.922L60.4478 211.698C61.1541 211.511 61.88 211.926 62.0771 212.629L62.6547 214.759L66.465 228.767H68.9219ZM57.3616 212.552C56.6579 212.749 56.2432 213.475 56.4306 214.181L57.0082 216.293L60.4047 228.767H36.9909C35.7673 228.767 34.7754 227.775 34.7754 226.552V197.414C34.7942 196.207 35.7754 195.237 36.9823 195.233H53.5685L58.2237 212.328L57.3616 212.552Z" fill="#EBCC48"/>
<path d="M35.853 212.129L34.7754 211L55.5254 190.94C55.8171 190.655 56.163 190.432 56.5426 190.284L57.4047 189.948C57.483 189.916 57.5728 189.935 57.6316 189.996C57.6905 190.057 57.7064 190.147 57.6719 190.224L57.3099 191.086C57.1503 191.458 56.9188 191.795 56.6288 192.078L35.853 212.129Z" fill="#2A276E"/>
<path d="M35.8927 208.598L38.2893 211.077C38.8353 211.642 38.8201 212.543 38.2553 213.089L22.9399 227.894C21.6938 229.099 19.7073 229.065 18.5028 227.819V227.819C17.2983 226.573 17.3319 224.586 18.5779 223.382L33.8933 208.577C34.4581 208.031 35.3586 208.046 35.9046 208.611L35.8927 208.598Z" fill="#A8499A"/>
<path d="M38.2236 213.078C38.4916 212.812 38.6423 212.451 38.6423 212.073C38.6423 211.696 38.4916 211.334 38.2236 211.069L35.9046 208.621C35.3495 208.067 34.4512 208.067 33.896 208.621L32.1719 210.267L36.5339 214.776L38.2236 213.078Z" fill="#474747"/>
</svg>
