<svg width="333" height="250" viewBox="0 0 333 250" fill="none" xmlns="http://www.w3.org/2000/svg">
<path d="M200.827 0C114.275 0 0.671875 49.1379 0.671875 125.81C0.671875 182.879 54.5857 250 148.155 250C217.543 250 237.655 204.172 262.387 194.466C287.12 184.759 332.568 160.491 332.568 108.741C332.568 56.9914 293.008 0 200.827 0Z" fill="#2A276E"/>
<rect x="173.836" y="46.6638" width="127.707" height="173.483" rx="5.05" fill="#ECE2F4"/>
<path d="M293.129 207.388V46.6638H178.18C175.8 46.6638 173.87 48.5936 173.87 50.9742V211.741H288.775C289.933 211.753 291.048 211.298 291.866 210.479C292.685 209.66 293.14 208.546 293.129 207.388V207.388Z" fill="#9982AB"/>
<rect x="160.991" y="33.8188" width="127.707" height="173.483" rx="5.05" fill="#ECE2F4"/>
<path d="M280.293 194.543V33.8188H165.327C164.176 33.8188 163.074 34.2788 162.264 35.0965C161.454 35.9142 161.005 37.0217 161.017 38.1723V198.896H275.939C277.097 198.908 278.211 198.453 279.03 197.634C279.849 196.815 280.304 195.701 280.293 194.543V194.543Z" fill="#9982AB"/>
<rect x="148.154" y="20.9827" width="127.707" height="173.483" rx="5.05" fill="#ECE2F4"/>
<path fill-rule="evenodd" clip-rule="evenodd" d="M256.784 53.5171H167.224C166.033 53.5171 165.068 52.5522 165.068 51.362C165.068 50.1717 166.033 49.2068 167.224 49.2068H256.784C257.974 49.2068 258.939 50.1717 258.939 51.362C258.939 52.5522 257.974 53.5171 256.784 53.5171ZM258.939 70.1464C258.939 68.9562 257.974 67.9913 256.784 67.9913H167.224C166.033 67.9913 165.068 68.9562 165.068 70.1464C165.068 71.3367 166.033 72.3016 167.224 72.3016H256.784C257.974 72.3016 258.939 71.3367 258.939 70.1464ZM256.784 86.7844C257.974 86.7844 258.939 87.7493 258.939 88.9395C258.939 90.1298 257.974 91.0947 256.784 91.0947H167.224C166.033 91.0947 165.068 90.1298 165.068 88.9395C165.068 87.7493 166.033 86.7844 167.224 86.7844H256.784ZM258.939 107.724C258.939 106.534 257.974 105.569 256.784 105.569H167.224C166.033 105.569 165.068 106.534 165.068 107.724C165.068 108.914 166.033 109.879 167.224 109.879H256.784C257.961 109.879 258.92 108.935 258.939 107.759V107.724ZM256.784 124.362C257.974 124.362 258.939 125.327 258.939 126.517C258.939 127.089 258.712 127.637 258.308 128.041C257.904 128.445 257.355 128.672 256.784 128.672H167.224C166.033 128.672 165.068 127.707 165.068 126.517C165.068 125.327 166.033 124.362 167.224 124.362H256.784ZM256.784 143.146H167.224C166.033 143.146 165.068 144.111 165.068 145.302C165.068 146.492 166.033 147.457 167.224 147.457H256.784C257.974 147.457 258.939 146.492 258.939 145.302C258.939 144.111 257.974 143.146 256.784 143.146ZM167.224 161.94H256.784C257.974 161.94 258.939 162.904 258.939 164.095C258.939 164.666 258.712 165.214 258.308 165.619C257.904 166.023 257.355 166.25 256.784 166.25H167.224C166.033 166.25 165.068 165.285 165.068 164.095C165.068 162.904 166.033 161.94 167.224 161.94Z" fill="#9982AB"/>
<path d="M197.922 172.104C222.493 147.478 224.556 108.293 202.706 81.2242L202.982 80.957L198.284 76.2587V76.2587L197.809 75.7673C184.67 62.6389 166.722 55.4722 148.154 55.9397V67.4742C168.757 66.8509 188.067 77.4863 198.552 95.2319C209.037 112.978 209.037 135.023 198.552 152.768C188.067 170.514 168.757 181.149 148.154 180.526V190.112C148.16 190.797 148.328 191.471 148.646 192.078C167.104 192.401 184.898 185.189 197.922 172.104V172.104Z" fill="#9982AB"/>
<path fill-rule="evenodd" clip-rule="evenodd" d="M188.447 67.9915H167.223C166.253 67.9969 165.406 68.6497 165.154 69.5863C167.718 70.3137 170.227 71.2211 172.663 72.3018H194.025C192.24 70.7714 190.378 69.3327 188.447 67.9915ZM209.301 91.0949H195.706C194.639 89.6008 193.497 88.1622 192.284 86.7846H206.715C207.628 88.1926 208.491 89.6294 209.301 91.0949ZM204.482 109.879H216.292C215.991 108.431 215.637 107 215.232 105.569H203.163C203.68 106.991 204.12 108.431 204.482 109.879ZM217.603 128.672H206.068C206.189 127.233 206.249 125.793 206.266 124.362H217.775C217.766 125.793 217.697 127.233 217.603 128.672ZM201.189 147.457H213.62C214.137 146.032 214.608 144.595 215.034 143.147H202.939C202.396 144.604 201.835 146.043 201.189 147.457ZM187.275 166.25C188.103 165.509 188.922 164.75 189.715 163.948H189.749C190.404 163.293 191.042 162.621 191.594 161.94H206.249C205.255 163.411 204.197 164.848 203.077 166.25H187.275Z" fill="#E4D382"/>
<path d="M14.9561 227.931L86.1716 151.345L82.0854 148.017L78.7492 143.966L2.32677 215.336C0.568751 216.973 0.168831 219.605 1.36125 221.69C2.25424 223.165 3.30652 224.539 4.49918 225.785C5.74622 226.977 7.12257 228.027 8.60263 228.914C10.6916 230.102 13.3237 229.695 14.9561 227.931Z" fill="#F1CB14"/>
<path d="M76.0163 162.267L83.8784 153.81C82.5163 152.681 81.1801 151.483 79.9043 150.207C78.6284 148.931 77.4215 147.621 76.2922 146.233L67.8525 154.121C69.0853 155.577 70.3698 157.009 71.7491 158.379C73.1284 159.75 74.5594 161.034 76.0163 162.267Z" fill="#703E97"/>
<circle cx="126.31" cy="103.69" r="62.3965" fill="#ECE2F4"/>
<path fill-rule="evenodd" clip-rule="evenodd" d="M79.4302 64.5085L187.637 94.3017C187.81 95.4396 187.956 96.5517 188.068 97.7241C188.084 97.9122 188.104 98.0961 188.123 98.2771C188.165 98.6768 188.206 99.0625 188.206 99.4482L188.81 106.784L188.31 106.017C188.275 106.931 188.215 107.879 188.146 108.741L71.594 76.6551C73.7205 72.3128 76.3507 68.2359 79.4302 64.5085ZM171.78 145.641C172.458 144.915 173.128 144.197 173.784 143.388C180.534 135.441 185.143 125.9 187.172 115.672L68.8871 83.1034C66.0069 91.265 64.8818 99.9426 65.5854 108.569V108.784L66.0509 114.207L66.2492 113.974C66.413 114.957 66.6112 115.948 66.8268 116.922L171.646 145.784L171.78 145.641Z" fill="#F9F2F2"/>
<path d="M96.1288 153.017C78.756 139.136 71.1273 116.365 76.632 94.8197C82.1367 73.2746 99.7535 56.9531 121.656 53.1067C143.558 49.2603 165.681 58.6026 178.198 76.9829L179.586 74.6122L172.974 54.8708C145.695 33.8976 107.057 36.5673 82.9219 61.0929C58.7868 85.6185 56.7377 124.294 78.146 151.233L85.3702 152.233L96.1288 153.017Z" fill="#8F00FF"/>
<path fill-rule="evenodd" clip-rule="evenodd" d="M174.887 55.9568L179.586 60.6464C205.895 87.263 205.797 130.122 179.367 156.618C152.937 183.115 110.078 183.32 83.396 157.077L78.6978 152.379C78.6271 152.309 78.5549 152.241 78.4831 152.174C78.3884 152.086 78.2946 151.998 78.2064 151.905C60.9776 134.719 54.2259 109.648 60.4948 86.1342C66.7636 62.6207 85.1006 44.2378 108.598 37.91C132.096 31.5823 157.184 38.2711 174.413 55.4568C174.495 55.5387 174.573 55.6227 174.65 55.7068C174.728 55.7908 174.806 55.8749 174.887 55.9568ZM166.254 63.6571C144.143 41.5928 108.332 41.6305 86.2667 63.7413C64.2051 85.8556 64.2437 121.666 86.3529 143.733C108.465 165.796 144.277 165.756 166.34 143.644C188.404 121.533 188.365 85.7213 166.254 63.6571Z" fill="#F1CB14"/>
<path fill-rule="evenodd" clip-rule="evenodd" d="M122.422 125.81C122.422 129.381 125.317 132.276 128.888 132.276C132.455 132.276 135.349 129.386 135.353 125.819V116.914C149.462 113.539 158.602 99.8812 156.341 85.5519C154.081 71.2226 141.18 61.0421 126.718 62.1749C112.255 63.3076 101.097 75.3727 101.095 89.8792C101.095 93.45 103.989 96.3447 107.56 96.3447C111.131 96.3447 114.026 93.45 114.026 89.8792C114.026 81.6711 120.68 75.0171 128.888 75.0171C137.096 75.0171 143.75 81.6711 143.75 89.8792C143.75 98.0873 137.096 104.741 128.888 104.741C125.317 104.741 122.422 107.636 122.422 111.207V125.81ZM122.465 143.931C122.47 140.43 125.309 137.595 128.81 137.595C130.497 137.595 132.115 138.267 133.306 139.462C134.497 140.658 135.162 142.278 135.155 143.965C135.141 147.466 132.294 150.294 128.793 150.284C125.292 150.275 122.461 147.432 122.465 143.931Z" fill="#703E97"/>
</svg>
