<svg width="16" height="16" viewBox="0 0 16 16" fill="none" xmlns="http://www.w3.org/2000/svg">
<path d="M13.664 2.33588C14.432 3.10388 15.0187 3.98921 15.424 4.99188C15.808 5.95188 16 6.95455 16 7.99988C16 9.04521 15.808 10.0479 15.424 11.0079C15.0187 12.0105 14.432 12.8959 13.664 13.6639C12.896 14.4319 12.0107 15.0185 11.008 15.4239C10.048 15.8079 9.04533 15.9999 8 15.9999C6.95467 15.9999 5.952 15.8079 4.992 15.4239C4 15.0185 3.12 14.4319 2.352 13.6639C1.584 12.8959 0.997333 12.0105 0.592 11.0079C0.197333 10.0479 0 9.04521 0 7.99988C0 6.95455 0.197333 5.95188 0.592 4.99188C0.997333 3.98921 1.584 3.10388 2.352 2.33588C3.12 1.56788 4 0.981211 4.992 0.575878C5.952 0.191878 6.95467 -0.00012207 8 -0.00012207C9.04533 -0.00012207 10.048 0.191878 11.008 0.575878C12.0107 0.981211 12.896 1.56788 13.664 2.33588ZM12 8.99188V7.00788H8.992V3.99988H7.008V7.00788H4V8.99188H7.008V11.9999H8.992V8.99188H12Z" fill="#2A276E"/>
</svg>
