<svg width="16" height="16" viewBox="0 0 16 16" fill="none" xmlns="http://www.w3.org/2000/svg">
<g id="Outline/askquestion" clip-path="url(#clip0_657_1751)">
<g id="Vector">
<path d="M8.75656 9.65221H7.83211V10.83H8.75656V9.65221Z" fill="#474747"/>
<path d="M9.69656 3.81888C9.481 3.63221 9.22989 3.48777 8.94767 3.38999C8.32989 3.17665 7.57211 3.21221 7.01656 3.4411C6.69878 3.57221 6.42322 3.75665 6.19656 3.99443C5.96989 4.23221 5.79434 4.52332 5.67878 4.85888C5.56989 5.17665 5.51656 5.52999 5.51656 5.90554H6.51656C6.51656 5.6411 6.55434 5.39888 6.62545 5.18777C6.69434 4.98999 6.78767 4.82777 6.91434 4.69443C7.04545 4.55888 7.201 4.45443 7.39211 4.37665C7.72989 4.23888 8.23434 4.20999 8.62323 4.34554C8.78545 4.4011 8.92322 4.4811 9.04322 4.58332C9.161 4.68554 9.24989 4.80554 9.31656 4.94777C9.381 5.08554 9.41434 5.25443 9.41434 5.44777C9.41434 5.69221 9.36545 5.89443 9.26989 6.04777C9.14323 6.24999 8.981 6.44777 8.77211 6.64554C8.58989 6.83221 8.44322 6.97665 8.33434 7.0811C8.18545 7.2211 8.06989 7.36999 7.98545 7.52999C7.90545 7.68777 7.84989 7.87221 7.82322 8.08332C7.80322 8.24332 7.78989 8.47443 7.78322 8.77666L8.78322 8.79888C8.78767 8.53888 8.801 8.3411 8.81433 8.20554C8.82767 8.09443 8.85211 8.02999 8.86545 8.0011C8.88767 7.9611 8.92989 7.89665 9.01878 7.81221C9.13434 7.70332 9.28767 7.54999 9.46767 7.36777C9.72545 7.1211 9.94323 6.85665 10.1143 6.58332C10.3121 6.26554 10.4143 5.8811 10.4143 5.44332C10.4143 5.1011 10.3499 4.78777 10.221 4.51221C10.0943 4.2411 9.91878 4.00554 9.69656 3.81221V3.81888Z" fill="#474747"/>
<path d="M8.99878 0.00109863H6.99878C3.13211 0.00109863 -0.0012207 3.16777 -0.0012207 7.07221C-0.0012207 8.96999 0.743224 10.69 1.94767 11.9589L1.93878 15.9989L5.17211 13.89C5.75656 14.05 6.36767 14.1411 7.001 14.1411H9.001C12.8677 14.1411 16.001 10.9744 16.001 7.06999C16.001 3.16554 12.8654 0.00109863 8.99878 0.00109863ZM8.99878 13.1344H6.99878C6.48545 13.1344 5.95878 13.0611 5.43211 12.9167L5.00322 12.7989L4.62989 13.0433L2.94322 14.1433L2.94767 11.9633V11.5567L2.66989 11.2633C1.59211 10.1278 0.998779 8.63888 0.998779 7.07443C0.998779 3.73221 3.68989 1.01221 6.99878 1.01221H8.99878C12.3077 1.01221 14.9988 3.73221 14.9988 7.07443C14.9988 10.4167 12.3077 13.1367 8.99878 13.1367V13.1344Z" fill="#474747"/>
<path d="M8.75434 10.83H7.82989V9.65221H8.75434V10.83ZM10.1143 6.58776C9.94323 6.8611 9.72767 7.12554 9.46767 7.37221C9.28545 7.55443 9.13211 7.70776 9.01878 7.81665C8.92989 7.9011 8.88767 7.96554 8.86545 8.00554C8.85211 8.03221 8.82767 8.09888 8.81433 8.20999C8.79878 8.34554 8.78767 8.54332 8.78322 8.80332L7.78322 8.7811C7.78989 8.47888 7.80322 8.24776 7.82322 8.08776C7.84989 7.87665 7.90322 7.68999 7.98545 7.53443C8.06989 7.37443 8.18767 7.22554 8.33434 7.08554C8.44322 6.9811 8.58989 6.83665 8.77211 6.64999C8.97878 6.45221 9.14323 6.25221 9.26989 6.05221C9.36545 5.89665 9.41434 5.69443 9.41434 5.45221C9.41434 5.2611 9.381 5.09221 9.31656 4.95221C9.24989 4.80999 9.15878 4.68999 9.04322 4.58777C8.92322 4.48332 8.78545 4.40554 8.62323 4.34999C8.23434 4.21665 7.72989 4.24332 7.39211 4.3811C7.201 4.45888 7.04545 4.56332 6.91434 4.69888C6.78767 4.83221 6.69211 4.99443 6.62545 5.19221C6.55434 5.40332 6.51656 5.64554 6.51656 5.90999H5.51656C5.51656 5.53443 5.57211 5.1811 5.67878 4.86332C5.79434 4.52554 5.96767 4.23665 6.19656 3.99888C6.42322 3.7611 6.69878 3.57665 7.01656 3.44554C7.57211 3.21665 8.32989 3.1811 8.94767 3.39443C9.22989 3.49221 9.481 3.63665 9.69656 3.82332C9.91878 4.01665 10.0943 4.25221 10.221 4.52332C10.3499 4.79888 10.4143 5.11221 10.4143 5.45443C10.4143 5.89221 10.3143 6.27443 10.1143 6.59443V6.58776Z" fill="#474747"/>
</g>
</g>
<defs>
<clipPath id="clip0_657_1751">
<rect width="16" height="16" fill="white"/>
</clipPath>
</defs>
</svg>
