<svg width="28" height="28" viewBox="0 0 28 28" fill="none" xmlns="http://www.w3.org/2000/svg">
<path fill-rule="evenodd" clip-rule="evenodd" d="M27.9615 13.125C27.5076 5.803 21.4408 0 14.0029 0C11.7356 0 9.6025 0.550667 7.70744 1.50733C7.44605 1.63917 7.1905 1.77917 6.93845 1.92617C6.68639 2.07433 6.43201 2.21783 6.19046 2.38117C2.45635 4.89533 0 9.16067 0 14C0 18.8393 2.45635 23.1047 6.19046 25.6188C6.67356 25.9443 7.18466 26.229 7.70744 26.4927C9.60133 27.4493 11.7356 28 14.0029 28C21.4408 28 27.5076 22.197 27.9615 14.875C27.9778 14.6207 27.9977 14.3687 28 14.112V13.888C27.9977 13.6313 27.9778 13.3782 27.9615 13.125ZM14.0029 1.75C20.4629 1.75 25.7595 6.77833 26.2111 13.125H14.5059L8.59546 3.024C10.2291 2.21667 12.06 1.75 14.0029 1.75ZM1.75036 14C1.75036 9.81283 3.8648 6.11217 7.08081 3.9025L12.9889 14L7.08081 24.0975C3.8648 21.8878 1.75036 18.1872 1.75036 14ZM14.0029 26.25C12.06 26.25 10.2291 25.7833 8.59546 24.976L14.5059 14.875H26.2111C25.7595 21.2217 20.4641 26.25 14.0029 26.25Z" fill="#703E97"/>
</svg>
