<svg width="16" height="16" viewBox="0 0 16 16" fill="none" xmlns="http://www.w3.org/2000/svg">
<g id="Icons/Outline/pie chart">
<path id="Icon" fill-rule="evenodd" clip-rule="evenodd" d="M15.978 7.5C15.7186 3.316 12.2519 0 8.00167 0C6.70606 0 5.48714 0.314667 4.40425 0.861333C4.25489 0.936667 4.10886 1.01667 3.96483 1.10067C3.8208 1.18533 3.67543 1.26733 3.5374 1.36067C1.40363 2.79733 0 5.23467 0 8C0 10.7653 1.40363 13.2027 3.5374 14.6393C3.81346 14.8253 4.10552 14.988 4.40425 15.1387C5.48648 15.6853 6.70606 16 8.00167 16C12.2519 16 15.7186 12.684 15.978 8.5C15.9873 8.35467 15.9987 8.21067 16 8.064V7.936C15.9987 7.78933 15.9873 7.64467 15.978 7.5ZM8.00167 1C11.6931 1 14.7197 3.87333 14.9778 7.5H8.28906L4.91169 1.728C5.84522 1.26667 6.89144 1 8.00167 1ZM1.00021 8C1.00021 5.60733 2.20846 3.49267 4.04618 2.23L7.42221 8L4.04618 13.77C2.20846 12.5073 1.00021 10.3927 1.00021 8ZM8.00167 15C6.89144 15 5.84522 14.7333 4.91169 14.272L8.28906 8.5H14.9778C14.7197 12.1267 11.6938 15 8.00167 15Z" fill="#474747"/>
</g>
</svg>
