<svg width="16" height="16" viewBox="0 0 16 16" fill="none" xmlns="http://www.w3.org/2000/svg">
<g id="Outline/help-question">
<path id="Vector" d="M8 0C9.088 0 10.128 0.208 11.12 0.624C12.0693 1.02933 12.912 1.60533 13.648 2.352C14.3947 3.088 14.9707 3.93067 15.376 4.88C15.792 5.872 16 6.912 16 8C16 9.088 15.792 10.128 15.376 11.12C14.9707 12.0693 14.3947 12.912 13.648 13.648C12.912 14.3947 12.0693 14.9707 11.12 15.376C10.128 15.792 9.088 16 8 16C6.912 16 5.872 15.792 4.88 15.376C3.93067 14.9707 3.08267 14.3947 2.336 13.648C1.6 12.912 1.02933 12.0693 0.624 11.12C0.208 10.128 0 9.088 0 8C0 6.912 0.208 5.872 0.624 4.88C1.02933 3.93067 1.6 3.088 2.336 2.352C3.08267 1.60533 3.93067 1.02933 4.88 0.624C5.872 0.208 6.912 0 8 0ZM8 15.008C9.26933 15.008 10.448 14.688 11.536 14.048C12.592 13.4293 13.4293 12.592 14.048 11.536C14.688 10.448 15.008 9.26933 15.008 8C15.008 6.73067 14.688 5.552 14.048 4.464C13.4293 3.408 12.592 2.57067 11.536 1.952C10.448 1.312 9.26933 0.992 8 0.992C6.74133 0.992 5.568 1.312 4.48 1.952C3.424 2.57067 2.58667 3.408 1.968 4.464C1.328 5.552 1.008 6.73067 1.008 8C1.008 9.26933 1.328 10.448 1.968 11.536C2.58667 12.592 3.424 13.4293 4.48 14.048C5.568 14.688 6.74133 15.008 8 15.008ZM7.888 11.504V10.336H8.816V11.504H7.888ZM9.728 4.56C9.94133 4.74133 10.112 4.97067 10.24 5.248C10.3787 5.51467 10.448 5.824 10.448 6.176C10.448 6.624 10.3467 6.99733 10.144 7.296C9.984 7.57333 9.77067 7.83467 9.504 8.08C9.28 8.304 9.13067 8.448 9.056 8.512C9.01333 8.55467 8.97067 8.60267 8.928 8.656L8.896 8.704L8.88 8.768C8.86933 8.82133 8.85867 8.86933 8.848 8.912C8.82667 9.08267 8.816 9.27467 8.816 9.488L7.824 9.472C7.824 9.22667 7.83467 8.99733 7.856 8.784C7.888 8.57067 7.94133 8.38933 8.016 8.24C8.112 8.08 8.22933 7.93067 8.368 7.792C8.48533 7.696 8.62933 7.552 8.8 7.36C9.024 7.14667 9.19467 6.94933 9.312 6.768C9.408 6.608 9.456 6.41067 9.456 6.176C9.456 5.984 9.41867 5.81867 9.344 5.68C9.26933 5.53067 9.17333 5.408 9.056 5.312C8.94934 5.20533 8.816 5.13067 8.656 5.088C8.47467 5.01333 8.26667 4.98133 8.032 4.992C7.79733 5.00267 7.59467 5.04533 7.424 5.12C7.25333 5.19467 7.09867 5.30133 6.96 5.44C6.82133 5.57867 6.72 5.73867 6.656 5.92C6.58133 6.16533 6.544 6.4 6.544 6.624H5.552C5.552 6.24 5.60533 5.89333 5.712 5.584C5.81867 5.264 5.98933 4.98667 6.224 4.752C6.45867 4.50667 6.736 4.32 7.056 4.192C7.33333 4.07467 7.648 4.01067 8 4C8.352 3.98933 8.672 4.03733 8.96 4.144C9.25867 4.24 9.51467 4.37867 9.728 4.56Z" fill="#8F00FF"/>
</g>
</svg>
